<svg xmlns="http://www.w3.org/2000/svg" xmlns:xlink="http://www.w3.org/1999/xlink" xmlns:lucid="lucid" width="1681.63" height="1316.63"><g transform="translate(-2100 844.9594011045673)" lucid:page-tab-id="0_0"><path d="M2000-1000h2000V500H2000z" fill="#fff"/><path d="M2425.86 381.92h15.8v11.73h-15.8v-11.73zM2486.05 250h62.8v153.34h-62.8V250z" fill="#29aae1"/><path d="M2349.86 275.84h166.2V382.1h-166.2V275.83z" fill="#29aae1"/><path d="M2357.45 282.3h151.6v95.03h-151.6V282.3z" fill="#fff" fill-opacity=".98"/><path d="M2356.45 394.5h151.4l-7.4 25.33h-151.6l7.6-25.33z" fill="#29aae1"/><path d="M2355.45 393.65h155l13 26.35h-155l-13-26.35z" fill="#29aae1"/><path d="M2408.05 413.2h55.2v5.27h-55.2v-5.27zM2377.66 397.73h4.2v3.4h-4.2v-3.4zM2384.86 397.9h4.2v3.4h-4.2v-3.4zM2394.26 404.02h4v3.4h-4v-3.4zM2392.66 397.56h4.2v3.4h-4.2v-3.4zM2399.66 397.73h4.2v3.4h-4.2v-3.4zM2406.66 397.56h4v3.4h-4v-3.4zM2449.26 398.07h4.2v3.4h-4.2v-3.4zM2455.66 398.07h4v3.4h-4v-3.4zM2461.45 398.07h4.2v3.4h-4.2v-3.4zM2468.45 398.07h4.2v3.4h-4.2v-3.4zM2475.05 398.07h4v3.4h-4v-3.4zM2467.26 403.68h4.2v3.4h-4.2v-3.4zM2482.45 398.07h4.2v3.4h-4.2v-3.4zM2401.86 403.85h4.2v3.4h-4.2v-3.4zM2409.86 403.85h4v3.4h-4v-3.4zM2460.86 403.5h3.6v3.4h-3.6v-3.4zM2453.86 403.5h4v3.4h-4v-3.4zM2414.26 397.73h4v3.4h-4v-3.4zM2421.86 397.9h4.2v3.4h-4.2v-3.4zM2429.05 397.73h4.2v3.4h-4.2v-3.4zM2437.05 397.73h4v3.4h-4v-3.4zM2443.45 397.9h4.2v3.4h-4.2v-3.4zM2416.86 403.68h4v3.4h-4v-3.4zM2424.45 403.68h4.2v3.4h-4.2v-3.4zM2431.86 403.85h4v3.4h-4v-3.4zM2438.86 403.85h4.2v3.4h-4.2v-3.4zM2446.26 403.5h4v3.4h-4v-3.4z" fill="#fff"/><path d="M2349.05 419.83l174.4-.5-12.4-25.68-154.4.17-7.6 26z" fill="none"/><path d="M2530.45 258h11.2c1.2 0 1.2 0 1.2 1.18 0 1.2 0 1.2-1.2 1.2h-11.2c-1.2 0-1.2 0-1.2-1.2s0-1.2 1.2-1.2zM2530.45 263.6h11.4c1 0 1 0 1 1.02s0 1.02-1 1.02h-11.4c-1.2 0-1.2 0-1.2-1.02s0-1.02 1.2-1.02zM2486.26 274.14h30.2v1.36h-30.2v-1.36z" fill="#fff"/><path d="M2516.45 274.14h1.4v108.3h-1.4v-108.3z" fill="#fff"/><path d="M2486.05 382.26h31.6v1.53h-31.6v-1.54zM2486.26 390.93h24.2c1.2 0 1.2 0 1.2 1.2 0 1.35 0 1.35-1.2 1.35h-24.2c-1.2 0-1.2 0-1.2-1.36 0-1.2 0-1.2 1.2-1.2z" fill="#fff"/><path d="M2511.45 391.27l6.8 11.73-2 1.2-6.6-11.9 1.8-1.03zM2425.05 381.92h17v1.7h-17v-1.7zM2425.66 391.78h16.2v1.87h-16.2v-1.87z" fill="#fff"/><use xlink:href="#a" transform="matrix(1,0,0,1,2318.8549363374173,420) translate(114.59876543209876 19.444444444444443)"/><path d="M2197 381.92h15.8v11.73H2197v-11.73zM2257.2 250h62.8v153.34h-62.8V250z" fill="#29aae1"/><path d="M2121 275.84h166.2V382.1H2121V275.83z" fill="#29aae1"/><path d="M2128.6 282.3h151.6v95.03h-151.6V282.3z" fill="#fff" fill-opacity=".98"/><path d="M2127.6 394.5H2279l-7.4 25.33H2120l7.6-25.33z" fill="#29aae1"/><path d="M2126.6 393.65h155l13 26.35h-155l-13-26.35z" fill="#29aae1"/><path d="M2179.2 413.2h55.2v5.27h-55.2v-5.27zM2148.8 397.73h4.2v3.4h-4.2v-3.4zM2156 397.9h4.2v3.4h-4.2v-3.4zM2165.4 404.02h4v3.4h-4v-3.4zM2163.8 397.56h4.2v3.4h-4.2v-3.4zM2170.8 397.73h4.2v3.4h-4.2v-3.4zM2177.8 397.56h4v3.4h-4v-3.4zM2220.4 398.07h4.2v3.4h-4.2v-3.4zM2226.8 398.07h4v3.4h-4v-3.4zM2232.6 398.07h4.2v3.4h-4.2v-3.4zM2239.6 398.07h4.2v3.4h-4.2v-3.4zM2246.2 398.07h4v3.4h-4v-3.4zM2238.4 403.68h4.2v3.4h-4.2v-3.4zM2253.6 398.07h4.2v3.4h-4.2v-3.4zM2173 403.85h4.2v3.4h-4.2v-3.4zM2181 403.85h4v3.4h-4v-3.4zM2232 403.5h3.6v3.4h-3.6v-3.4zM2225 403.5h4v3.4h-4v-3.4zM2185.4 397.73h4v3.4h-4v-3.4zM2193 397.9h4.2v3.4h-4.2v-3.4zM2200.2 397.73h4.2v3.4h-4.2v-3.4zM2208.2 397.73h4v3.4h-4v-3.4zM2214.6 397.9h4.2v3.4h-4.2v-3.4zM2188 403.68h4v3.4h-4v-3.4zM2195.6 403.68h4.2v3.4h-4.2v-3.4zM2203 403.85h4v3.4h-4v-3.4zM2210 403.85h4.2v3.4h-4.2v-3.4zM2217.4 403.5h4v3.4h-4v-3.4z" fill="#fff"/><path d="M2120.2 419.83l174.4-.5-12.4-25.68-154.4.17-7.6 26z" fill="none"/><path d="M2301.6 258h11.2c1.2 0 1.2 0 1.2 1.18 0 1.2 0 1.2-1.2 1.2h-11.2c-1.2 0-1.2 0-1.2-1.2s0-1.2 1.2-1.2zM2301.6 263.6h11.4c1 0 1 0 1 1.02s0 1.02-1 1.02h-11.4c-1.2 0-1.2 0-1.2-1.02s0-1.02 1.2-1.02zM2257.4 274.14h30.2v1.36h-30.2v-1.36zM2287.6 274.14h1.4v108.3h-1.4v-108.3z" fill="#fff"/><path d="M2257.2 382.26h31.6v1.53h-31.6v-1.54zM2257.4 390.93h24.2c1.2 0 1.2 0 1.2 1.2 0 1.35 0 1.35-1.2 1.35h-24.2c-1.2 0-1.2 0-1.2-1.36 0-1.2 0-1.2 1.2-1.2z" fill="#fff"/><path d="M2282.6 391.27l6.8 11.73-2 1.2-6.6-11.9 1.8-1.03zM2196.2 381.92h17v1.7h-17v-1.7zM2196.8 391.78h16.2v1.87h-16.2v-1.87z" fill="#fff"/><use xlink:href="#a" transform="matrix(1,0,0,1,2090,420) translate(114.59876543209876 19.444444444444443)"/><path d="M3479.13 391.92h15.8v11.73h-15.8v-11.73zM3539.33 260h62.8v153.34h-62.8V260z" fill="#29aae1"/><path d="M3403.13 285.84h166.2V392.1h-166.2V285.83z" fill="#29aae1"/><path d="M3410.73 292.3h151.6v95.03h-151.6V292.3z" fill="#fff" fill-opacity=".98"/><path d="M3409.73 404.5h151.4l-7.4 25.33h-151.6l7.6-25.33z" fill="#29aae1"/><path d="M3408.73 403.65h155l13 26.35h-155l-13-26.35z" fill="#29aae1"/><path d="M3461.33 423.2h55.2v5.27h-55.2v-5.27zM3430.93 407.73h4.2v3.4h-4.2v-3.4zM3438.13 407.9h4.2v3.4h-4.2v-3.4zM3447.53 414.02h4v3.4h-4v-3.4zM3445.93 407.56h4.2v3.4h-4.2v-3.4zM3452.93 407.73h4.2v3.4h-4.2v-3.4zM3459.93 407.56h4v3.4h-4v-3.4zM3502.53 408.07h4.2v3.4h-4.2v-3.4zM3508.93 408.07h4v3.4h-4v-3.4zM3514.73 408.07h4.2v3.4h-4.2v-3.4zM3521.73 408.07h4.2v3.4h-4.2v-3.4zM3528.33 408.07h4v3.4h-4v-3.4zM3520.53 413.68h4.2v3.4h-4.2v-3.4zM3535.73 408.07h4.2v3.4h-4.2v-3.4zM3455.13 413.85h4.2v3.4h-4.2v-3.4zM3463.13 413.85h4v3.4h-4v-3.4zM3514.13 413.5h3.6v3.4h-3.6v-3.4zM3507.13 413.5h4v3.4h-4v-3.4zM3467.53 407.73h4v3.4h-4v-3.4zM3475.13 407.9h4.2v3.4h-4.2v-3.4zM3482.33 407.73h4.2v3.4h-4.2v-3.4zM3490.33 407.73h4v3.4h-4v-3.4zM3496.73 407.9h4.2v3.4h-4.2v-3.4zM3470.13 413.68h4v3.4h-4v-3.4zM3477.73 413.68h4.2v3.4h-4.2v-3.4zM3485.13 413.85h4v3.4h-4v-3.4zM3492.13 413.85h4.2v3.4h-4.2v-3.4zM3499.53 413.5h4v3.4h-4v-3.4z" fill="#fff"/><path d="M3402.33 429.83l174.4-.5-12.4-25.68-154.4.17-7.6 26z" fill="none"/><path d="M3583.73 268h11.2c1.2 0 1.2 0 1.2 1.18 0 1.2 0 1.2-1.2 1.2h-11.2c-1.2 0-1.2 0-1.2-1.2s0-1.2 1.2-1.2zM3583.73 273.6h11.4c1 0 1 0 1 1.02s0 1.02-1 1.02h-11.4c-1.2 0-1.2 0-1.2-1.02s0-1.02 1.2-1.02zM3539.53 284.14h30.2v1.36h-30.2v-1.36zM3569.73 284.14h1.4v108.3h-1.4v-108.3z" fill="#fff"/><path d="M3539.33 392.26h31.6v1.53h-31.6v-1.54zM3539.53 400.93h24.2c1.2 0 1.2 0 1.2 1.2 0 1.35 0 1.35-1.2 1.35h-24.2c-1.2 0-1.2 0-1.2-1.36 0-1.2 0-1.2 1.2-1.2z" fill="#fff"/><path d="M3564.73 401.27l6.8 11.73-2 1.2-6.6-11.9 1.8-1.03zM3478.33 391.92h17v1.7h-17v-1.7zM3478.93 401.78h16.2v1.87h-16.2v-1.87z" fill="#fff"/><use xlink:href="#a" transform="matrix(1,0,0,1,3372.125768170242,430) translate(114.59876543209876 19.444444444444443)"/><path d="M3153.24-183.04h-103.76V-185h103.76zm234.38-1.44h-6.04l-.06.26-.12.3-.3.4-.4.28-.27.12-.26.06-.23.02h-169.96V-185h169.7l.05-.26.12-.3.3-.4.4-.28.27-.1.26-.08H3387.63z" stroke="#3a414a" stroke-width=".05" fill="#3a414a"/><path d="M3048.48-179.38l-14.27-4.64 14.28-4.63z" fill="#3a414a"/><path d="M3049.45-178.04l-18.4-5.98 18.4-5.98zm-12.08-5.98l10.13 3.3v-6.6z" stroke="#3a414a" stroke-width=".05" fill="#3a414a"/><path d="M3402.9-185.46l-14.28 4.64v-9.28z" fill="#3a414a"/><path d="M3406.05-185.46l-18.4 5.98v-11.96zm-16.45 3.3l10.14-3.3-10.14-3.3z" stroke="#3a414a" stroke-width=".05" fill="#3a414a"/><use xlink:href="#b" transform="matrix(1,0,0,1,3153.2415770924817,-194.68607210260714) translate(0 14.222222222222223)"/><path d="M2417.14 24.66h-.95V-40.7h.94zm-21.66-92h-.95v-38.88h.94zm0-60.22h-.95v-21.02h.94z" stroke="#3a414a" stroke-width=".05" fill="#3a414a"/><path d="M2395.47-148.57h-.94v-.5h.94z" fill="#3a414a"/><path stroke="#3a414a" stroke-width=".05" fill="#3a414a"/><path d="M2416.66 39.42l-4.63-14.26h9.27z" fill="#3a414a"/><path d="M2416.66 40.96l-5.28-16.28h10.57zm-3.98-15.33l3.98 12.25 4-12.25z" stroke="#3a414a" stroke-width=".05" fill="#3a414a"/><use xlink:href="#c" transform="matrix(1,0,0,1,2331.758009196177,-67.35273876927376) translate(0 17.77777777777778)"/><use xlink:href="#d" transform="matrix(1,0,0,1,2373.320987654321,-127.55484930810664) translate(0 14.222222222222223)"/><use xlink:href="#e" transform="matrix(1,0,0,1,2373.320987654321,-127.55484930810664) translate(33.48148148148148 14.222222222222223)"/><path d="M2947.1 104.66h-.95V-9.64h.95zm0-140.95h-.95v-32.6h.95zm0-53.94h-.95v-28.22h.95zM2947.1-118.45h-.95v-.5h.95z" stroke="#3a414a" stroke-width=".05" fill="#3a414a"/><path d="M2946.63 119.42l-4.64-14.26h9.26z" fill="#3a414a"/><path d="M2946.63 120.96l-5.3-16.28h10.6zm-4-15.33l4 12.26 3.98-12.27z" stroke="#3a414a" stroke-width=".05" fill="#3a414a"/><use xlink:href="#d" transform="matrix(1,0,0,1,2924.9468678554626,-90.24144896651639) translate(0 14.222222222222223)"/><use xlink:href="#e" transform="matrix(1,0,0,1,2924.9468678554626,-90.24144896651639) translate(33.48148148148148 14.222222222222223)"/><use xlink:href="#f" transform="matrix(1,0,0,1,2872.5518061270677,-36.292753113272205) translate(0 17.77777777777778)"/><path d="M3477.1 21.66h-.95v-28.3h.95zm0-68.62v13.67h-.95v-15.99h.95zm0-23.67h-.95v-60.83h.95z" stroke="#3a414a" stroke-width=".05" fill="#3a414a"/><path d="M3477.1-131.45h-.95v-.5h.95z" stroke="#3a414a" stroke-width=".05" fill="#3a414a"/><path d="M3476.63 36.42L3472 22.16h9.26z" fill="#3a414a"/><path d="M3476.63 37.96l-5.3-16.28h10.6zm-4-15.33l4 12.25 3.98-12.25z" stroke="#3a414a" stroke-width=".05" fill="#3a414a"/><use xlink:href="#d" transform="matrix(1,0,0,1,3454.9469178554627,-70.62605556606756) translate(0 14.222222222222223)"/><use xlink:href="#e" transform="matrix(1,0,0,1,3454.9469178554627,-70.62605556606756) translate(33.48148148148148 14.222222222222223)"/><use xlink:href="#g" transform="matrix(1,0,0,1,3402.5518778662067,-33.293717117645684) translate(0 17.77777777777778)"/><path d="M2161.63-204.46a6 6 0 0 1 6-6h228a6 6 0 0 1 6 6v48a6 6 0 0 1-6 6h-228a6 6 0 0 1-6-6z" fill="none"/><use xlink:href="#h" transform="matrix(1,0,0,1,2161.6258802011416,-210.45940976731367) translate(84.25925925925927 34.44444444444444)"/><use xlink:href="#i" transform="matrix(1,0,0,1,2161.6258802011416,-210.45940976731367) translate(118.76543209876544 34.44444444444444)"/><path d="M2901.63-144.46a6 6 0 0 1 6-6h228a6 6 0 0 1 6 6v48a6 6 0 0 1-6 6h-228a6 6 0 0 1-6-6z" fill="none"/><use xlink:href="#j" transform="matrix(1,0,0,1,2901.6258802011416,-150.45940976731367) translate(89.78395061728395 34.44444444444444)"/><use xlink:href="#k" transform="matrix(1,0,0,1,2901.6258802011416,-150.45940976731367) translate(124.29012345679013 34.44444444444444)"/><path d="M3521.63-212.96a6 6 0 0 1 6-6h228a6 6 0 0 1 6 6v23a6 6 0 0 1-6 6h-228a6 6 0 0 1-6-6z" fill="none"/><use xlink:href="#l" transform="matrix(1,0,0,1,3521.6258802011416,-218.95940543594043) translate(86.75925925925927 21.944444444444443)"/><use xlink:href="#m" transform="matrix(1,0,0,1,3521.6258802011416,-218.95940543594043) translate(121.26543209876544 21.944444444444443)"/><path d="M2981.63-262.96a6 6 0 0 1 6-6h228a6 6 0 0 1 6 6v48a6 6 0 0 1-6 6h-228a6 6 0 0 1-6-6z" fill="none"/><use xlink:href="#n" transform="matrix(1,0,0,1,2981.6258802011416,-268.9594054359404) translate(62.65432098765433 21.111111111111114)"/><use xlink:href="#o" transform="matrix(1,0,0,1,2981.6258802011416,-268.9594054359404) translate(110.37037037037038 21.111111111111114)"/><use xlink:href="#p" transform="matrix(1,0,0,1,2981.6258802011416,-268.9594054359404) translate(52.09876543209876 47.777777777777786)"/><path d="M3221.63-372.96a6 6 0 0 1 6-6h228a6 6 0 0 1 6 6v82a6 6 0 0 1-6 6h-228a6 6 0 0 1-6-6z" fill="none"/><use xlink:href="#q" transform="matrix(1,0,0,1,3221.6258802011416,-378.9594054359404) translate(77.46913580246914 38.611111111111114)"/><use xlink:href="#r" transform="matrix(1,0,0,1,3221.6258802011416,-378.9594054359404) translate(102.1604938271605 38.611111111111114)"/><use xlink:href="#s" transform="matrix(1,0,0,1,3221.6258802011416,-378.9594054359404) translate(64.44444444444444 65.27777777777777)"/><path d="M2461.63-269.46a6 6 0 0 1 6-6h228a6 6 0 0 1 6 6v53a6 6 0 0 1-6 6h-228a6 6 0 0 1-6-6z" fill="none"/><use xlink:href="#n" transform="matrix(1,0,0,1,2461.6258802011416,-275.4594097673137) translate(62.65432098765433 23.611111111111114)"/><use xlink:href="#t" transform="matrix(1,0,0,1,2461.6258802011416,-275.4594097673137) translate(110.37037037037038 23.611111111111114)"/><use xlink:href="#u" transform="matrix(1,0,0,1,2461.6258802011416,-275.4594097673137) translate(52.09876543209876 50.27777777777778)"/><path d="M2681.63-237.96a6 6 0 0 1 6-6h228a6 6 0 0 1 6 6v48a6 6 0 0 1-6 6h-228a6 6 0 0 1-6-6z" fill="none"/><use xlink:href="#n" transform="matrix(1,0,0,1,2681.6258802011416,-243.95940543594043) translate(62.65432098765433 21.111111111111114)"/><use xlink:href="#t" transform="matrix(1,0,0,1,2681.6258802011416,-243.95940543594043) translate(110.37037037037038 21.111111111111114)"/><use xlink:href="#v" transform="matrix(1,0,0,1,2681.6258802011416,-243.95940543594043) translate(52.09876543209876 47.777777777777786)"/><path d="M2385.63-434.96c-13.26 0-24-10.75-24-24 0-10.6 6.5-19.55 16.58-22.83-.57-31.16 39.43-37.16 55.43-25.16 8-18 48-12 48 6 24-6 48 18 32 48 16 24 0 54-32 42-8 15.6-40 15.6-48 0-16 12-48 6-48-24z" stroke="#3a414a" stroke-width="2" fill="#fff"/><use xlink:href="#w" transform="matrix(1,0,0,1,2366.6258802011416,-513.9594054359404) translate(35.876543209876544 59.02777777777778)"/><path d="M2874.45-454.96c-13.25 0-24-10.75-24-24 0-10.6 6.5-19.55 16.6-22.83-.6-31.16 39.4-37.16 55.4-25.16 8-18 48-12 48 6 24-6 48 18 32 48 16 24 0 54-32 42-8 15.6-40 15.6-48 0-16 12-48 6-48-24z" stroke="#3a414a" stroke-width="2" fill="#fff"/><use xlink:href="#w" transform="matrix(1,0,0,1,2855.453168309524,-533.9594054359404) translate(35.876543209876544 59.02777777777778)"/><path d="M3404-454.96c-13.26 0-24-10.75-24-24 0-10.6 6.5-19.55 16.58-22.83-.58-31.16 39.42-37.16 55.42-25.16 8-18 48-12 48 6 24-6 48 18 32 48 16 24 0 54-32 42-8 15.6-40 15.6-48 0-16 12-48 6-48-24z" stroke="#3a414a" stroke-width="2" fill="#fff"/><use xlink:href="#w" transform="matrix(1,0,0,1,3385,-533.9594054359404) translate(35.876543209876544 59.02777777777778)"/><path d="M2647.12-178.04h-161.28V-180h161.28zm215.5-4.94h-158.76v-1.95h158.76z" stroke="#3a414a" stroke-width=".05" fill="#3a414a"/><path d="M2484.84-171.52l-13-7.5 13-7.5z" fill="#3a414a"/><path d="M2485.8-169.83l-15.9-9.2 15.9-9.18zm-12-9.2l10.06 5.82v-11.63z" stroke="#3a414a" stroke-width=".05" fill="#3a414a"/><path d="M2877.9-183.96l-14.28 4.64v-9.28z" fill="#3a414a"/><path d="M2881.05-183.96l-18.4 5.98v-11.96zm-16.45 3.3l10.14-3.3-10.14-3.3z" stroke="#3a414a" stroke-width=".05" fill="#3a414a"/><use xlink:href="#b" transform="matrix(1,0,0,1,2647.11762574565,-192.15607210260734) translate(0 14.222222222222223)"/><path d="M3201.63-278.96a6 6 0 0 1 6-6h228a6 6 0 0 1 6 6v48a6 6 0 0 1-6 6h-228a6 6 0 0 1-6-6z" fill="none"/><use xlink:href="#n" transform="matrix(1,0,0,1,3201.6258802011416,-284.9594011045672) translate(62.65432098765433 21.111111111111114)"/><use xlink:href="#o" transform="matrix(1,0,0,1,3201.6258802011416,-284.9594011045672) translate(110.37037037037038 21.111111111111114)"/><use xlink:href="#x" transform="matrix(1,0,0,1,3201.6258802011416,-284.9594011045672) translate(52.09876543209876 47.777777777777786)"/><path d="M2921.63-356.96a6 6 0 0 1 6-6h228a6 6 0 0 1 6 6v82a6 6 0 0 1-6 6h-228a6 6 0 0 1-6-6z" fill="none"/><use xlink:href="#q" transform="matrix(1,0,0,1,2921.6258802011416,-362.9594097673137) translate(77.46913580246914 38.611111111111114)"/><use xlink:href="#r" transform="matrix(1,0,0,1,2921.6258802011416,-362.9594097673137) translate(102.1604938271605 38.611111111111114)"/><use xlink:href="#y" transform="matrix(1,0,0,1,2921.6258802011416,-362.9594097673137) translate(64.44444444444444 65.27777777777777)"/><path d="M2441.63-341.96a6 6 0 0 1 6-6h228a6 6 0 0 1 6 6v82a6 6 0 0 1-6 6h-228a6 6 0 0 1-6-6z" fill="none"/><use xlink:href="#q" transform="matrix(1,0,0,1,2441.6258802011416,-347.9594097673137) translate(77.46913580246914 25.27777777777778)"/><use xlink:href="#r" transform="matrix(1,0,0,1,2441.6258802011416,-347.9594097673137) translate(102.1604938271605 25.27777777777778)"/><use xlink:href="#z" transform="matrix(1,0,0,1,2441.6258802011416,-347.9594097673137) translate(64.44444444444444 51.94444444444445)"/><use xlink:href="#A" transform="matrix(1,0,0,1,2441.6258802011416,-347.9594097673137) translate(120 78.61111111111111)"/><path d="M2711.63-312.96a6 6 0 0 1 6-6h228a6 6 0 0 1 6 6v82a6 6 0 0 1-6 6h-228a6 6 0 0 1-6-6z" fill="none"/><use xlink:href="#q" transform="matrix(1,0,0,1,2711.6258802011416,-318.9594054359404) translate(77.46913580246914 25.27777777777778)"/><use xlink:href="#r" transform="matrix(1,0,0,1,2711.6258802011416,-318.9594054359404) translate(102.1604938271605 25.27777777777778)"/><use xlink:href="#B" transform="matrix(1,0,0,1,2711.6258802011416,-318.9594054359404) translate(64.44444444444444 51.94444444444445)"/><use xlink:href="#A" transform="matrix(1,0,0,1,2711.6258802011416,-318.9594054359404) translate(120 78.61111111111111)"/><path d="M2358.66 41.04h124.88v37.7h-124.88v-37.7z" fill="#29aae1"/><path d="M2364.66 83.07h112.88V86h-112.88v-2.93z" fill="#2188b4"/><path d="M2367.66 47.7h11.5v4.86h-11.5V47.7z" fill="#fff"/><path d="M2373.16 51c2.88 0 2.88 0 2.88 2.64v.5c0 2.65 0 2.65-2.88 2.65-2.75 0-2.75 0-2.75-2.66v-.5c0-2.65 0-2.65 2.76-2.65zM2385.54 47.7h11.5v4.86h-11.5V47.7z" fill="#fff"/><path d="M2391.16 51c2.75 0 2.75 0 2.75 2.64v.5c0 2.65 0 2.65-2.74 2.65-2.87 0-2.87 0-2.87-2.66v-.5c0-2.65 0-2.65 2.86-2.65zM2404.4 47.7h11.5v4.86h-11.5V47.7z" fill="#fff"/><path d="M2410.04 51c2.75 0 2.75 0 2.75 2.64v.5c0 2.65 0 2.65-2.76 2.65-2.88 0-2.88 0-2.88-2.66v-.5c0-2.65 0-2.65 2.88-2.65zM2422.66 47.7h11.63v4.86h-11.64V47.7z" fill="#fff"/><path d="M2428.3 51c2.74 0 2.74 0 2.74 2.64v.5c0 2.65 0 2.65-2.75 2.65-2.76 0-2.76 0-2.76-2.66v-.5c0-2.65 0-2.65 2.75-2.65zM2445.8 43.97h33.5V74.7h-33.5V43.97z" fill="#fff"/><path d="M2446.9 45h31.14v28.53h-31.13V45z" fill="#54bbe7"/><path d="M2367.9 62.87h11.64v4.8h-11.63v-4.8z" fill="#fff"/><path d="M2373.54 66.1c2.75 0 2.75 0 2.75 2.66v.5c0 2.65 0 2.65-2.76 2.65-2.75 0-2.75 0-2.75-2.64v-.5c0-2.65 0-2.65 2.74-2.65zM2385.8 62.87h11.6v4.8h-11.6v-4.8z" fill="#fff"/><path d="M2391.4 66.1c2.76 0 2.76 0 2.76 2.66v.5c0 2.65 0 2.65-2.75 2.65-2.74 0-2.74 0-2.74-2.64v-.5c0-2.65 0-2.65 2.75-2.65zM2404.66 62.87h11.63v4.8h-11.64v-4.8z" fill="#fff"/><path d="M2410.3 66.1c2.74 0 2.74 0 2.74 2.66v.5c0 2.65 0 2.65-2.75 2.65-2.76 0-2.76 0-2.76-2.64v-.5c0-2.65 0-2.65 2.75-2.65zM2423.04 62.87h11.62v4.8h-11.62v-4.8z" fill="#fff"/><path d="M2428.66 66.1c2.75 0 2.75 0 2.75 2.66v.5c0 2.65 0 2.65-2.74 2.65-2.75 0-2.75 0-2.75-2.64v-.5c0-2.65 0-2.65 2.76-2.65zM2450.4 46.3l-3.1 3.07 3.24 3-.13-6.06zM2450.4 66.3l-3.1 3.05 3.1 3V66.3zM2474.3 72.4l3.1-3-3.1-3.07v6.08zM2474.4 52.52l3.14-3.02-3.13-3.06v6.08z" fill="#fff"/><path d="M2450.16 48.1h4.75v2.44h-4.74V48.1zM2470.16 48.33h4.63v2.43h-4.64v-2.43zM2450.16 68.1h4.63v2.42h-4.64V68.1zM2470.04 68.27h4.62v2.43h-4.62v-2.43z" fill="#fff"/><path d="M2452.66 49.73l2.13-1.62 17.36 20.98-2.12 1.62-17.38-20.97z" fill="#fff"/><path d="M2470.16 48.33l2 1.76-17.37 20.46-2.14-1.75 17.5-20.47z" fill="#fff"/><path d="M2462.8 56.93l2 2.47-.4.27-2-2.47.4-.27zM2460.54 59.27l2 2.47-.38.27-2-2.46.38-.27z" fill="#54bbe7"/><use xlink:href="#C" transform="matrix(1,0,0,1,2328.6641709626933,86.04059456405957) translate(59.84567901234568 19.444444444444443)"/><path d="M2389.6 86.5v88.42a6 6 0 0 1-6 6h-167.54a6 6 0 0 0-6 6v72.54" stroke="#3a414a" fill="none"/><path d="M2390.07 86.5h-.95V86h.95zm0-3.43h-.95V83h.95z" stroke="#3a414a" stroke-width=".05" fill="#3a414a"/><path d="M2210.06 274.22l-4.64-14.26h9.27z" stroke="#3a414a" fill="#3a414a"/><path d="M2452.73 86.5v88.42a6 6 0 0 1-6 6h-1.82a6 6 0 0 0-6 6v72.54" stroke="#3a414a" fill="none"/><path d="M2453.2 86.5h-.94V86h.94zm0-3.43h-.94V83h.94z" stroke="#3a414a" stroke-width=".05" fill="#3a414a"/><path d="M2438.9 274.22l-4.62-14.26h9.27z" stroke="#3a414a" fill="#3a414a"/><path d="M2888.64 76.04h124.88v37.7h-124.88v-37.7z" fill="#29aae1"/><path d="M2894.64 118.07h112.88V121h-112.88v-2.93z" fill="#2188b4"/><path d="M2897.64 82.7h11.5v4.86h-11.5V82.7z" fill="#fff"/><path d="M2903.14 86c2.88 0 2.88 0 2.88 2.64v.5c0 2.65 0 2.65-2.88 2.65-2.74 0-2.74 0-2.74-2.66v-.5c0-2.65 0-2.65 2.74-2.65zM2915.52 82.7h11.5v4.86h-11.5V82.7z" fill="#fff"/><path d="M2921.14 86c2.76 0 2.76 0 2.76 2.64v.5c0 2.65 0 2.65-2.76 2.65-2.87 0-2.87 0-2.87-2.66v-.5c0-2.65 0-2.65 2.88-2.65zM2934.4 82.7h11.5v4.86h-11.5V82.7z" fill="#fff"/><path d="M2940.02 86c2.75 0 2.75 0 2.75 2.64v.5c0 2.65 0 2.65-2.75 2.65-2.88 0-2.88 0-2.88-2.66v-.5c0-2.65 0-2.65 2.88-2.65zM2952.64 82.7h11.63v4.86h-11.63V82.7z" fill="#fff"/><path d="M2958.27 86c2.75 0 2.75 0 2.75 2.64v.5c0 2.65 0 2.65-2.75 2.65s-2.75 0-2.75-2.66v-.5c0-2.65 0-2.65 2.75-2.65zM2975.77 78.97h33.5v30.73h-33.5V78.97z" fill="#fff"/><path d="M2976.9 80H3008v28.53h-31.13V80z" fill="#54bbe7"/><path d="M2897.9 97.87h11.62v4.8h-11.63v-4.8z" fill="#fff"/><path d="M2903.52 101.1c2.75 0 2.75 0 2.75 2.66v.5c0 2.65 0 2.65-2.75 2.65s-2.75 0-2.75-2.64v-.5c0-2.65 0-2.65 2.75-2.65zM2915.77 97.87h11.63v4.8h-11.63v-4.8z" fill="#fff"/><path d="M2921.4 101.1c2.74 0 2.74 0 2.74 2.66v.5c0 2.65 0 2.65-2.74 2.65-2.76 0-2.76 0-2.76-2.64v-.5c0-2.65 0-2.65 2.76-2.65zM2934.64 97.87h11.63v4.8h-11.63v-4.8z" fill="#fff"/><path d="M2940.27 101.1c2.75 0 2.75 0 2.75 2.66v.5c0 2.65 0 2.65-2.75 2.65s-2.75 0-2.75-2.64v-.5c0-2.65 0-2.65 2.75-2.65zM2953.02 97.87h11.63v4.8H2953v-4.8z" fill="#fff"/><path d="M2958.64 101.1c2.76 0 2.76 0 2.76 2.66v.5c0 2.65 0 2.65-2.76 2.65-2.74 0-2.74 0-2.74-2.64v-.5c0-2.65 0-2.65 2.74-2.65zM2980.4 81.3l-3.13 3.07 3.25 3-.13-6.06zM2980.4 101.3l-3.13 3.05 3.13 3v-6.06zM3004.27 107.4l3.13-3-3.13-3.07v6.08zM3004.4 87.52l3.12-3.02-3.13-3.06v6.08z" fill="#fff"/><path d="M2980.14 83.1h4.76v2.44h-4.76V83.1zM3000.14 83.33h4.63v2.43h-4.63v-2.43zM2980.14 103.1h4.63v2.42h-4.63v-2.43zM3000.02 103.27h4.63v2.43H3000v-2.43z" fill="#fff"/><path d="M2982.64 84.73l2.13-1.62 17.38 20.98-2.13 1.62-17.38-20.97z" fill="#fff"/><path d="M3000.14 83.33l2 1.76-17.37 20.46-2.13-1.75 17.5-20.47z" fill="#fff"/><path d="M2992.77 91.93l2 2.47-.38.27-2-2.47.37-.27zM2990.52 94.27l2 2.47-.38.27-2-2.46.38-.27z" fill="#54bbe7"/><use xlink:href="#C" transform="matrix(1,0,0,1,2858.6450636625827,121.04059456405957) translate(59.84567901234568 19.444444444444443)"/><path d="M2919.58 121.5v70.92a6 6 0 0 1-6 6h-177.52a6 6 0 0 0-6 6v55.04" stroke="#3a414a" fill="none"/><path d="M2920.05 121.5h-.95v-.5h.95zm0-3.43h-.95V118h.95z" stroke="#3a414a" stroke-width=".05" fill="#3a414a"/><path d="M2730.06 274.22l-4.64-14.26h9.27z" stroke="#3a414a" fill="#3a414a"/><path d="M2982.7 121.5v73.65a5.76 5.76 0 0 1-5.75 5.77 5.76 5.76 0 0 0-5.77 5.76v57.78" stroke="#3a414a" fill="none"/><path d="M2983.2 121.5h-.96v-.5h.95zm0-3.43h-.96V118h.95z" stroke="#3a414a" stroke-width=".05" fill="#3a414a"/><path d="M2971.18 279.22l-4.63-14.26h9.27z" stroke="#3a414a" fill="#3a414a"/><path d="M3418.63 41.04h124.87v37.7h-124.87v-37.7z" fill="#29aae1"/><path d="M3424.63 83.07h112.87V86h-112.87v-2.93z" fill="#2188b4"/><path d="M3427.63 47.7h11.5v4.86h-11.5V47.7z" fill="#fff"/><path d="M3433.13 51c2.87 0 2.87 0 2.87 2.64v.5c0 2.65 0 2.65-2.87 2.65-2.75 0-2.75 0-2.75-2.66v-.5c0-2.65 0-2.65 2.75-2.65zM3445.5 47.7h11.5v4.86h-11.5V47.7z" fill="#fff"/><path d="M3451.13 51c2.75 0 2.75 0 2.75 2.64v.5c0 2.65 0 2.65-2.75 2.65-2.88 0-2.88 0-2.88-2.66v-.5c0-2.65 0-2.65 2.88-2.65zM3464.38 47.7h11.5v4.86h-11.5V47.7z" fill="#fff"/><path d="M3470 51c2.75 0 2.75 0 2.75 2.64v.5c0 2.65 0 2.65-2.75 2.65-2.87 0-2.87 0-2.87-2.66v-.5c0-2.65 0-2.65 2.87-2.65zM3482.63 47.7h11.62v4.86h-11.62V47.7z" fill="#fff"/><path d="M3488.25 51c2.75 0 2.75 0 2.75 2.64v.5c0 2.65 0 2.65-2.75 2.65s-2.75 0-2.75-2.66v-.5c0-2.65 0-2.65 2.75-2.65zM3505.75 43.97h33.5V74.7h-33.5V43.97z" fill="#fff"/><path d="M3506.88 45H3538v28.53h-31.12V45z" fill="#54bbe7"/><path d="M3427.88 62.87h11.62v4.8h-11.62v-4.8z" fill="#fff"/><path d="M3433.5 66.1c2.75 0 2.75 0 2.75 2.66v.5c0 2.65 0 2.65-2.75 2.65s-2.75 0-2.75-2.64v-.5c0-2.65 0-2.65 2.75-2.65zM3445.75 62.87h11.63v4.8h-11.63v-4.8z" fill="#fff"/><path d="M3451.38 66.1c2.75 0 2.75 0 2.75 2.66v.5c0 2.65 0 2.65-2.75 2.65s-2.75 0-2.75-2.64v-.5c0-2.65 0-2.65 2.75-2.65zM3464.63 62.87h11.62v4.8h-11.62v-4.8z" fill="#fff"/><path d="M3470.25 66.1c2.75 0 2.75 0 2.75 2.66v.5c0 2.65 0 2.65-2.75 2.65s-2.75 0-2.75-2.64v-.5c0-2.65 0-2.65 2.75-2.65zM3483 62.87h11.63v4.8H3483v-4.8z" fill="#fff"/><path d="M3488.63 66.1c2.75 0 2.75 0 2.75 2.66v.5c0 2.65 0 2.65-2.75 2.65s-2.75 0-2.75-2.64v-.5c0-2.65 0-2.65 2.75-2.65zM3510.38 46.3l-3.13 3.07 3.25 3-.12-6.06zM3510.38 66.3l-3.13 3.05 3.13 3V66.3zM3534.25 72.4l3.13-3-3.13-3.07v6.08zM3534.38 52.52l3.12-3.02-3.12-3.06v6.08z" fill="#fff"/><path d="M3510.13 48.1h4.75v2.44h-4.75V48.1zM3530.13 48.33h4.62v2.43h-4.62v-2.43zM3510.13 68.1h4.62v2.42h-4.62V68.1zM3530 68.27h4.63v2.43H3530v-2.43z" fill="#fff"/><path d="M3512.63 49.73l2.12-1.62 17.38 20.98-2.13 1.62-17.37-20.97z" fill="#fff"/><path d="M3530.13 48.33l2 1.76-17.38 20.46-2.12-1.75 17.5-20.47z" fill="#fff"/><path d="M3522.75 56.93l2 2.47-.37.27-2-2.47.37-.27zM3520.5 59.27l2 2.47-.37.27-2-2.46.37-.27z" fill="#54bbe7"/><use xlink:href="#C" transform="matrix(1,0,0,1,3388.625956362472,86.04059456405957) translate(59.84567901234568 19.444444444444443)"/><path d="M3449.56 86.5v90.92a6 6 0 0 1-6 6h-205.88a6 6 0 0 0-6 6v75.04" stroke="#3a414a" fill="none"/><path d="M3450.03 86.5h-.95V86h.95zm0-3.43h-.95V83h.95z" stroke="#3a414a" stroke-width=".05" fill="#3a414a"/><path d="M3231.68 279.22l-4.63-14.26h9.27z" stroke="#3a414a" fill="#3a414a"/><path d="M3512.7 86.5v93.42a6 6 0 0 1-6 6h-8.52a6 6 0 0 0-6 6v77.54" stroke="#3a414a" fill="none"/><path d="M3513.17 86.5h-.95V86h.95zm0-3.43h-.95V83h.95z" stroke="#3a414a" stroke-width=".05" fill="#3a414a"/><path d="M3492.18 284.22l-4.63-14.26h9.27z" stroke="#3a414a" fill="#3a414a"/><path d="M2717 381.92h15.8v11.73H2717v-11.73zM2777.2 250h62.8v153.34h-62.8V250z" fill="#29aae1"/><path d="M2641 275.84h166.2V382.1H2641V275.83z" fill="#29aae1"/><path d="M2648.6 282.3h151.6v95.03h-151.6V282.3z" fill="#fff" fill-opacity=".98"/><path d="M2647.6 394.5H2799l-7.4 25.33H2640l7.6-25.33z" fill="#29aae1"/><path d="M2646.6 393.65h155l13 26.35h-155l-13-26.35z" fill="#29aae1"/><path d="M2699.2 413.2h55.2v5.27h-55.2v-5.27zM2668.8 397.73h4.2v3.4h-4.2v-3.4zM2676 397.9h4.2v3.4h-4.2v-3.4zM2685.4 404.02h4v3.4h-4v-3.4zM2683.8 397.56h4.2v3.4h-4.2v-3.4zM2690.8 397.73h4.2v3.4h-4.2v-3.4zM2697.8 397.56h4v3.4h-4v-3.4zM2740.4 398.07h4.2v3.4h-4.2v-3.4zM2746.8 398.07h4v3.4h-4v-3.4zM2752.6 398.07h4.2v3.4h-4.2v-3.4zM2759.6 398.07h4.2v3.4h-4.2v-3.4zM2766.2 398.07h4v3.4h-4v-3.4zM2758.4 403.68h4.2v3.4h-4.2v-3.4zM2773.6 398.07h4.2v3.4h-4.2v-3.4zM2693 403.85h4.2v3.4h-4.2v-3.4zM2701 403.85h4v3.4h-4v-3.4zM2752 403.5h3.6v3.4h-3.6v-3.4zM2745 403.5h4v3.4h-4v-3.4zM2705.4 397.73h4v3.4h-4v-3.4zM2713 397.9h4.2v3.4h-4.2v-3.4zM2720.2 397.73h4.2v3.4h-4.2v-3.4zM2728.2 397.73h4v3.4h-4v-3.4zM2734.6 397.9h4.2v3.4h-4.2v-3.4zM2708 403.68h4v3.4h-4v-3.4zM2715.6 403.68h4.2v3.4h-4.2v-3.4zM2723 403.85h4v3.4h-4v-3.4zM2730 403.85h4.2v3.4h-4.2v-3.4zM2737.4 403.5h4v3.4h-4v-3.4z" fill="#fff"/><path d="M2640.2 419.83l174.4-.5-12.4-25.68-154.4.17-7.6 26z" fill="none"/><path d="M2821.6 258h11.2c1.2 0 1.2 0 1.2 1.18 0 1.2 0 1.2-1.2 1.2h-11.2c-1.2 0-1.2 0-1.2-1.2s0-1.2 1.2-1.2zM2821.6 263.6h11.4c1 0 1 0 1 1.02s0 1.02-1 1.02h-11.4c-1.2 0-1.2 0-1.2-1.02s0-1.02 1.2-1.02zM2777.4 274.14h30.2v1.36h-30.2v-1.36zM2807.6 274.14h1.4v108.3h-1.4v-108.3z" fill="#fff"/><path d="M2777.2 382.26h31.6v1.53h-31.6v-1.54zM2777.4 390.93h24.2c1.2 0 1.2 0 1.2 1.2 0 1.35 0 1.35-1.2 1.35h-24.2c-1.2 0-1.2 0-1.2-1.36 0-1.2 0-1.2 1.2-1.2z" fill="#fff"/><path d="M2802.6 391.27l6.8 11.73-2 1.2-6.6-11.9 1.8-1.03zM2716.2 381.92h17v1.7h-17v-1.7zM2716.8 391.78h16.2v1.87h-16.2v-1.87z" fill="#fff"/><use xlink:href="#D" transform="matrix(1,0,0,1,2610,420) translate(114.59876543209876 19.444444444444443)"/><path d="M2320-204.52h149.85v46.56H2320v-46.56z" fill="#29aae1"/><path d="M2327.2-152.68h135.45v3.6H2327.2v-3.6z" fill="#2188b4"/><path d="M2327.05-186.76H2341v5.88h-13.95v-5.88z" fill="#fff"/><path d="M2333.8-182.8c3.3 0 3.3 0 3.3 3.36v.6c0 3.24 0 3.24-3.3 3.24s-3.3 0-3.3-3.24v-.6c0-3.36 0-3.36 3.3-3.36zM2348.5-186.76h13.95v5.88h-13.95v-5.88z" fill="#fff"/><path d="M2355.25-182.8c3.3 0 3.3 0 3.3 3.36v.6c0 3.24 0 3.24-3.3 3.24s-3.3 0-3.3-3.24v-.6c0-3.36 0-3.36 3.3-3.36zM2371.15-186.76h13.95v5.88h-13.95v-5.88z" fill="#fff"/><path d="M2377.9-182.8c3.3 0 3.3 0 3.3 3.36v.6c0 3.24 0 3.24-3.3 3.24s-3.3 0-3.3-3.24v-.6c0-3.36 0-3.36 3.3-3.36zM2393.2-186.76h13.95v5.88h-13.95v-5.88z" fill="#fff"/><path d="M2399.95-182.8c3.3 0 3.3 0 3.3 3.36v.6c0 3.24 0 3.24-3.3 3.24s-3.3 0-3.3-3.24v-.6c0-3.36 0-3.36 3.3-3.36z" fill="#fff"/><path d="M2454.85-235c5.7 1.08 5.7 1.08 4.65 6.6l-5.4 27.48c-1.05 5.64-1.05 5.64-6.75 4.56-5.55-1.08-5.55-1.08-4.5-6.6l5.25-27.6c1.2-5.52 1.2-5.52 6.75-4.44z" fill="#29aae1"/><path d="M2460.85-265.48c3.45.72 3.45.72 2.85 4.08l-5.7 28.68c-.6 3.36-.6 3.36-4.05 2.76-3.6-.72-3.6-.72-2.85-4.08l5.55-28.68c.6-3.36.6-3.36 4.2-2.76z" fill="#29aae1"/><path d="M2424.55-200.92h40.2V-163h-40.2v-37.92z" fill="#fff"/><path d="M2425.9-199.6h37.35v35.16h-37.35v-35.16z" fill="#54bbe7"/><path d="M2443.9-197.92l-4.5 4.68h2.4l.15 6.48h4.65l-.45-6.48h2.4l-4.65-4.68zM2444.65-167.2l4.5-4.44-2.25-.12-.15-6.48-4.65-.12.45 6.48H2440l4.65 4.68zM2446.3-182.2l4.5 4.68.15-2.28h6.45l.3-4.56-6.6.24v-1.68l.15-.72-4.95 4.32zM2442.4-182.2l-4.5-4.56-.15 2.28-6.45-.12-.3 4.56 6.6-.24v1.8l-.15.72 4.95-4.44z" fill="#fff"/><path d="M2334.7-237.4c5.55-1.08 5.55-1.08 6.6 4.44l5.4 27.48c1.2 5.64 1.2 5.64-4.5 6.72s-5.7 1.08-6.75-4.56l-5.4-27.48c-1.05-5.52-1.05-5.52 4.65-6.6z" fill="#29aae1"/><path d="M2328.7-267.88c3.45-.72 3.45-.72 4.2 2.76l5.55 28.68c.6 3.36.6 3.36-2.85 4.08-3.45.6-3.45.6-4.05-2.76l-5.7-28.68c-.6-3.48-.6-3.48 2.85-4.08z" fill="#29aae1"/><use xlink:href="#E" transform="matrix(1,0,0,1,2290,-148.95940543594043) translate(71.72839506172839 19.444444444444443)"/><path d="M2881.13-209.52h149.85v46.56h-149.85v-46.56z" fill="#29aae1"/><path d="M2888.33-157.68h135.45v3.6h-135.45v-3.6z" fill="#2188b4"/><path d="M2888.18-191.76h13.95v5.88h-13.95v-5.88z" fill="#fff"/><path d="M2894.93-187.8c3.3 0 3.3 0 3.3 3.36v.6c0 3.24 0 3.24-3.3 3.24s-3.3 0-3.3-3.24v-.6c0-3.36 0-3.36 3.3-3.36zM2909.63-191.76h13.95v5.88h-13.95v-5.88z" fill="#fff"/><path d="M2916.38-187.8c3.3 0 3.3 0 3.3 3.36v.6c0 3.24 0 3.24-3.3 3.24s-3.3 0-3.3-3.24v-.6c0-3.36 0-3.36 3.3-3.36zM2932.28-191.76h13.95v5.88h-13.95v-5.88z" fill="#fff"/><path d="M2939.03-187.8c3.3 0 3.3 0 3.3 3.36v.6c0 3.24 0 3.24-3.3 3.24s-3.3 0-3.3-3.24v-.6c0-3.36 0-3.36 3.3-3.36zM2954.33-191.76h13.95v5.88h-13.95v-5.88z" fill="#fff"/><path d="M2961.08-187.8c3.3 0 3.3 0 3.3 3.36v.6c0 3.24 0 3.24-3.3 3.24s-3.3 0-3.3-3.24v-.6c0-3.36 0-3.36 3.3-3.36z" fill="#fff"/><path d="M3015.98-240c5.7 1.08 5.7 1.08 4.65 6.6l-5.4 27.48c-1.05 5.64-1.05 5.64-6.75 4.56-5.55-1.08-5.55-1.08-4.5-6.6l5.25-27.6c1.2-5.52 1.2-5.52 6.75-4.44z" fill="#29aae1"/><path d="M3021.98-270.48c3.45.72 3.45.72 2.85 4.08l-5.7 28.68c-.6 3.36-.6 3.36-4.05 2.76-3.6-.72-3.6-.72-2.85-4.08l5.55-28.68c.6-3.36.6-3.36 4.2-2.76z" fill="#29aae1"/><path d="M2985.68-205.92h40.2V-168h-40.2v-37.92z" fill="#fff"/><path d="M2987.03-204.6h37.35v35.16h-37.35v-35.16z" fill="#54bbe7"/><path d="M3005.03-202.92l-4.5 4.68h2.4l.15 6.48h4.65l-.45-6.48h2.4l-4.65-4.68zM3005.78-172.2l4.5-4.44-2.25-.12-.15-6.48-4.65-.12.45 6.48h-2.55l4.65 4.68zM3007.43-187.2l4.5 4.68.15-2.28h6.45l.3-4.56-6.6.24v-1.68l.15-.72-4.95 4.32zM3003.53-187.2l-4.5-4.56-.15 2.28-6.45-.12-.3 4.56 6.6-.24v1.8l-.15.72 4.95-4.44z" fill="#fff"/><path d="M2895.83-242.4c5.55-1.08 5.55-1.08 6.6 4.44l5.4 27.48c1.2 5.64 1.2 5.64-4.5 6.72s-5.7 1.08-6.75-4.56l-5.4-27.48c-1.05-5.52-1.05-5.52 4.65-6.6z" fill="#29aae1"/><path d="M2889.83-272.88c3.45-.72 3.45-.72 4.2 2.76l5.55 28.68c.6 3.36.6 3.36-2.85 4.08-3.45.6-3.45.6-4.05-2.76l-5.7-28.68c-.6-3.48-.6-3.48 2.85-4.08z" fill="#29aae1"/><use xlink:href="#E" transform="matrix(1,0,0,1,2851.1259922320414,-153.95940543594043) translate(71.72839506172839 19.444444444444443)"/><path d="M3406.13-211.02h149.85v46.56h-149.85v-46.56z" fill="#29aae1"/><path d="M3413.33-159.18h135.45v3.6h-135.45v-3.6z" fill="#2188b4"/><path d="M3413.18-193.26h13.95v5.88h-13.95v-5.88z" fill="#fff"/><path d="M3419.93-189.3c3.3 0 3.3 0 3.3 3.36v.6c0 3.24 0 3.24-3.3 3.24s-3.3 0-3.3-3.24v-.6c0-3.36 0-3.36 3.3-3.36zM3434.63-193.26h13.95v5.88h-13.95v-5.88z" fill="#fff"/><path d="M3441.38-189.3c3.3 0 3.3 0 3.3 3.36v.6c0 3.24 0 3.24-3.3 3.24s-3.3 0-3.3-3.24v-.6c0-3.36 0-3.36 3.3-3.36zM3457.28-193.26h13.95v5.88h-13.95v-5.88z" fill="#fff"/><path d="M3464.03-189.3c3.3 0 3.3 0 3.3 3.36v.6c0 3.24 0 3.24-3.3 3.24s-3.3 0-3.3-3.24v-.6c0-3.36 0-3.36 3.3-3.36zM3479.33-193.26h13.95v5.88h-13.95v-5.88z" fill="#fff"/><path d="M3486.08-189.3c3.3 0 3.3 0 3.3 3.36v.6c0 3.24 0 3.24-3.3 3.24s-3.3 0-3.3-3.24v-.6c0-3.36 0-3.36 3.3-3.36z" fill="#fff"/><path d="M3540.98-241.5c5.7 1.08 5.7 1.08 4.65 6.6l-5.4 27.48c-1.05 5.64-1.05 5.64-6.75 4.56-5.55-1.08-5.55-1.08-4.5-6.6l5.25-27.6c1.2-5.52 1.2-5.52 6.75-4.44z" fill="#29aae1"/><path d="M3546.98-271.98c3.45.72 3.45.72 2.85 4.08l-5.7 28.68c-.6 3.36-.6 3.36-4.05 2.76-3.6-.72-3.6-.72-2.85-4.08l5.55-28.68c.6-3.36.6-3.36 4.2-2.76z" fill="#29aae1"/><path d="M3510.68-207.42h40.2v37.92h-40.2v-37.92z" fill="#fff"/><path d="M3512.03-206.1h37.35v35.16h-37.35v-35.16z" fill="#54bbe7"/><path d="M3530.03-204.42l-4.5 4.68h2.4l.15 6.48h4.65l-.45-6.48h2.4l-4.65-4.68zM3530.78-173.7l4.5-4.44-2.25-.12-.15-6.48-4.65-.12.45 6.48h-2.55l4.65 4.68zM3532.43-188.7l4.5 4.68.15-2.28h6.45l.3-4.56-6.6.24v-1.68l.15-.72-4.95 4.32zM3528.53-188.7l-4.5-4.56-.15 2.28-6.45-.12-.3 4.56 6.6-.24v1.8l-.15.72 4.95-4.44z" fill="#fff"/><path d="M3420.83-243.9c5.55-1.08 5.55-1.08 6.6 4.44l5.4 27.48c1.2 5.64 1.2 5.64-4.5 6.72s-5.7 1.08-6.75-4.56l-5.4-27.48c-1.05-5.52-1.05-5.52 4.65-6.6z" fill="#29aae1"/><path d="M3414.83-274.38c3.45-.72 3.45-.72 4.2 2.76l5.55 28.68c.6 3.36.6 3.36-2.85 4.08-3.45.6-3.45.6-4.05-2.76l-5.7-28.68c-.6-3.48-.6-3.48 2.85-4.08z" fill="#29aae1"/><use xlink:href="#E" transform="matrix(1,0,0,1,3376.125956362472,-155.45940976731367) translate(71.72839506172839 19.444444444444443)"/><path d="M3218.63 386.92h15.8v11.73h-15.8v-11.73zM3278.83 255h62.8v153.34h-62.8V255z" fill="#29aae1"/><path d="M3142.63 280.84h166.2V387.1h-166.2V280.83z" fill="#29aae1"/><path d="M3150.23 287.3h151.6v95.03h-151.6V287.3z" fill="#fff" fill-opacity=".98"/><path d="M3149.23 399.5h151.4l-7.4 25.33h-151.6l7.6-25.33z" fill="#29aae1"/><path d="M3148.23 398.65h155l13 26.35h-155l-13-26.35z" fill="#29aae1"/><path d="M3200.83 418.2h55.2v5.27h-55.2v-5.27zM3170.43 402.73h4.2v3.4h-4.2v-3.4zM3177.63 402.9h4.2v3.4h-4.2v-3.4zM3187.03 409.02h4v3.4h-4v-3.4zM3185.43 402.56h4.2v3.4h-4.2v-3.4zM3192.43 402.73h4.2v3.4h-4.2v-3.4zM3199.43 402.56h4v3.4h-4v-3.4zM3242.03 403.07h4.2v3.4h-4.2v-3.4zM3248.43 403.07h4v3.4h-4v-3.4zM3254.23 403.07h4.2v3.4h-4.2v-3.4zM3261.23 403.07h4.2v3.4h-4.2v-3.4zM3267.83 403.07h4v3.4h-4v-3.4zM3260.03 408.68h4.2v3.4h-4.2v-3.4zM3275.23 403.07h4.2v3.4h-4.2v-3.4zM3194.63 408.85h4.2v3.4h-4.2v-3.4zM3202.63 408.85h4v3.4h-4v-3.4zM3253.63 408.5h3.6v3.4h-3.6v-3.4zM3246.63 408.5h4v3.4h-4v-3.4zM3207.03 402.73h4v3.4h-4v-3.4zM3214.63 402.9h4.2v3.4h-4.2v-3.4zM3221.83 402.73h4.2v3.4h-4.2v-3.4zM3229.83 402.73h4v3.4h-4v-3.4zM3236.23 402.9h4.2v3.4h-4.2v-3.4zM3209.63 408.68h4v3.4h-4v-3.4zM3217.23 408.68h4.2v3.4h-4.2v-3.4zM3224.63 408.85h4v3.4h-4v-3.4zM3231.63 408.85h4.2v3.4h-4.2v-3.4zM3239.03 408.5h4v3.4h-4v-3.4z" fill="#fff"/><path d="M3141.83 424.83l174.4-.5-12.4-25.68-154.4.17-7.6 26z" fill="none"/><path d="M3323.23 263h11.2c1.2 0 1.2 0 1.2 1.18 0 1.2 0 1.2-1.2 1.2h-11.2c-1.2 0-1.2 0-1.2-1.2s0-1.2 1.2-1.2zM3323.23 268.6h11.4c1 0 1 0 1 1.02s0 1.02-1 1.02h-11.4c-1.2 0-1.2 0-1.2-1.02s0-1.02 1.2-1.02zM3279.03 279.14h30.2v1.36h-30.2v-1.36zM3309.23 279.14h1.4v108.3h-1.4v-108.3z" fill="#fff"/><path d="M3278.83 387.26h31.6v1.53h-31.6v-1.54zM3279.03 395.93h24.2c1.2 0 1.2 0 1.2 1.2 0 1.35 0 1.35-1.2 1.35h-24.2c-1.2 0-1.2 0-1.2-1.36 0-1.2 0-1.2 1.2-1.2z" fill="#fff"/><path d="M3304.23 396.27l6.8 11.73-2 1.2-6.6-11.9 1.8-1.03zM3217.83 386.92h17v1.7h-17v-1.7zM3218.43 396.78h16.2v1.87h-16.2v-1.87z" fill="#fff"/><use xlink:href="#D" transform="matrix(1,0,0,1,3111.6258802011416,425) translate(114.59876543209876 19.444444444444443)"/><path d="M2958.13 386.92h15.8v11.73h-15.8v-11.73zM3018.33 255h62.8v153.34h-62.8V255z" fill="#29aae1"/><path d="M2882.13 280.84h166.2V387.1h-166.2V280.83z" fill="#29aae1"/><path d="M2889.73 287.3h151.6v95.03h-151.6V287.3z" fill="#fff" fill-opacity=".98"/><path d="M2888.73 399.5h151.4l-7.4 25.33h-151.6l7.6-25.33z" fill="#29aae1"/><path d="M2887.73 398.65h155l13 26.35h-155l-13-26.35z" fill="#29aae1"/><path d="M2940.33 418.2h55.2v5.27h-55.2v-5.27zM2909.93 402.73h4.2v3.4h-4.2v-3.4zM2917.13 402.9h4.2v3.4h-4.2v-3.4zM2926.53 409.02h4v3.4h-4v-3.4zM2924.93 402.56h4.2v3.4h-4.2v-3.4zM2931.93 402.73h4.2v3.4h-4.2v-3.4zM2938.93 402.56h4v3.4h-4v-3.4zM2981.53 403.07h4.2v3.4h-4.2v-3.4zM2987.93 403.07h4v3.4h-4v-3.4zM2993.73 403.07h4.2v3.4h-4.2v-3.4zM3000.73 403.07h4.2v3.4h-4.2v-3.4zM3007.33 403.07h4v3.4h-4v-3.4zM2999.53 408.68h4.2v3.4h-4.2v-3.4zM3014.73 403.07h4.2v3.4h-4.2v-3.4zM2934.13 408.85h4.2v3.4h-4.2v-3.4zM2942.13 408.85h4v3.4h-4v-3.4zM2993.13 408.5h3.6v3.4h-3.6v-3.4zM2986.13 408.5h4v3.4h-4v-3.4zM2946.53 402.73h4v3.4h-4v-3.4zM2954.13 402.9h4.2v3.4h-4.2v-3.4zM2961.33 402.73h4.2v3.4h-4.2v-3.4zM2969.33 402.73h4v3.4h-4v-3.4zM2975.73 402.9h4.2v3.4h-4.2v-3.4zM2949.13 408.68h4v3.4h-4v-3.4zM2956.73 408.68h4.2v3.4h-4.2v-3.4zM2964.13 408.85h4v3.4h-4v-3.4zM2971.13 408.85h4.2v3.4h-4.2v-3.4zM2978.53 408.5h4v3.4h-4v-3.4z" fill="#fff"/><path d="M2881.33 424.83l174.4-.5-12.4-25.68-154.4.17-7.6 26z" fill="none"/><path d="M3062.73 263h11.2c1.2 0 1.2 0 1.2 1.18 0 1.2 0 1.2-1.2 1.2h-11.2c-1.2 0-1.2 0-1.2-1.2s0-1.2 1.2-1.2zM3062.73 268.6h11.4c1 0 1 0 1 1.02s0 1.02-1 1.02h-11.4c-1.2 0-1.2 0-1.2-1.02s0-1.02 1.2-1.02zM3018.53 279.14h30.2v1.36h-30.2v-1.36zM3048.73 279.14h1.4v108.3h-1.4v-108.3z" fill="#fff"/><path d="M3018.33 387.26h31.6v1.53h-31.6v-1.54zM3018.53 395.93h24.2c1.2 0 1.2 0 1.2 1.2 0 1.35 0 1.35-1.2 1.35h-24.2c-1.2 0-1.2 0-1.2-1.36 0-1.2 0-1.2 1.2-1.2z" fill="#fff"/><path d="M3043.73 396.27l6.8 11.73-2 1.2-6.6-11.9 1.8-1.03zM2957.33 386.92h17v1.7h-17v-1.7zM2957.93 396.78h16.2v1.87h-16.2v-1.87z" fill="#fff"/><g><use xlink:href="#D" transform="matrix(1,0,0,1,2851.1259922320414,425) translate(114.59876543209876 19.444444444444443)"/></g><path d="M2820-818.96a6 6 0 0 1 6-6h228a6 6 0 0 1 6 6v103a6 6 0 0 1-6 6h-228a6 6 0 0 1-6-6z" fill="none"/><g><use xlink:href="#F" transform="matrix(1,0,0,1,2820,-824.9594011045673) translate(60.21604938271605 48.611111111111114)"/><use xlink:href="#G" transform="matrix(1,0,0,1,2820,-824.9594011045673) translate(142.80864197530866 48.611111111111114)"/><use xlink:href="#H" transform="matrix(1,0,0,1,2820,-824.9594011045673) translate(4.753086419753089 75.27777777777777)"/><use xlink:href="#I" transform="matrix(1,0,0,1,2820,-824.9594011045673) translate(120.55555555555556 75.27777777777777)"/><use xlink:href="#J" transform="matrix(1,0,0,1,2820,-824.9594011045673) translate(165 75.27777777777777)"/></g><path d="M2740-665.63a6 6 0 0 1 6-6h368a6 6 0 0 1 6 6v64.67a6 6 0 0 1-6 6h-368a6 6 0 0 1-6-6z" fill="none"/><g><use xlink:href="#K" transform="matrix(1,0,0,1,2740,-671.6260677712338) translate(77.19135802469135 17.77777777777778)"/><use xlink:href="#L" transform="matrix(1,0,0,1,2740,-671.6260677712338) translate(142.5 17.77777777777778)"/><use xlink:href="#M" transform="matrix(1,0,0,1,2740,-671.6260677712338) translate(154.84567901234567 17.77777777777778)"/><use xlink:href="#N" transform="matrix(1,0,0,1,2740,-671.6260677712338) translate(219.0432098765432 17.77777777777778)"/><use xlink:href="#O" transform="matrix(1,0,0,1,2740,-671.6260677712338) translate(93.17901234567901 44.44444444444444)"/><use xlink:href="#L" transform="matrix(1,0,0,1,2740,-671.6260677712338) translate(138.67283950617283 44.44444444444444)"/><use xlink:href="#P" transform="matrix(1,0,0,1,2740,-671.6260677712338) translate(151.01851851851853 44.44444444444444)"/><use xlink:href="#Q" transform="matrix(1,0,0,1,2740,-671.6260677712338) translate(95.0925925925926 71.11111111111111)"/><use xlink:href="#R" transform="matrix(1,0,0,1,2740,-671.6260677712338) translate(173.98148148148147 71.11111111111111)"/><use xlink:href="#S" transform="matrix(1,0,0,1,2740,-671.6260677712338) translate(240.58641975308643 71.11111111111111)"/></g><path d="M2397.87-295.4h.1v68.85h-.96v-73.53l.08-1 .24-.98.4-.94.15-.27zm44.23-16.64l-.08 1-.24.98-.38.94-.17.27v-7.88h-.08v-84.72h.95z" stroke="#3a414a" stroke-width=".05" fill="#3a414a"/><path d="M2442.07-401.7l.03.26h-.95v-.78z" fill="#3a414a"/><path stroke="#3a414a" stroke-width=".05" fill="#3a414a"/><path d="M2397.48-211.78l-4.64-14.27h9.27z" fill="#3a414a"/><path d="M2397.48-210.25l-5.3-16.28h10.6zm-3.98-15.32l3.98 12.25 3.98-12.25z" stroke="#3a414a" stroke-width=".05" fill="#3a414a"/><g><use xlink:href="#d" transform="matrix(1,0,0,1,2397.873912898139,-316.7262288111689) translate(0 14.222222222222223)"/><use xlink:href="#T" transform="matrix(1,0,0,1,2397.873912898139,-316.7262288111689) translate(33.48148148148148 14.222222222222223)"/></g><path d="M2947.1-225.9h-.95v-99.82h.95zm0-121.15h-.95v-70.76h.95z" stroke="#3a414a" stroke-width=".05" fill="#3a414a"/><path d="M2947.1-417.8h-.95v-.5h.95z" fill="#3a414a"/><path stroke="#3a414a" stroke-width=".05" fill="#3a414a"/><path d="M2946.63-211.14L2942-225.4h9.26z" fill="#3a414a"/><path d="M2946.63-209.6l-5.3-16.28h10.6zm-4-15.33l4 12.25 3.98-12.25z" stroke="#3a414a" stroke-width=".05" fill="#3a414a"/><g><use xlink:href="#d" transform="matrix(1,0,0,1,2924.9468678554626,-347.05179684860497) translate(0 14.222222222222223)"/><use xlink:href="#T" transform="matrix(1,0,0,1,2924.9468678554626,-347.05179684860497) translate(33.48148148148148 14.222222222222223)"/></g><path d="M3480.47-227.4h-.94v-76.7h.94zm0-98.03h-.94V-418h.94z" stroke="#3a414a" stroke-width=".05" fill="#3a414a"/><path d="M3480.47-418h-.94v-.46l.94-.1z" fill="#3a414a"/><path stroke="#3a414a" stroke-width=".05" fill="#3a414a"/><path d="M3480-212.64l-4.64-14.26h9.28z" fill="#3a414a"/><path d="M3480-211.1l-5.3-16.28h10.6zm-3.98-15.33l3.98 12.25 3.98-12.25z" stroke="#3a414a" stroke-width=".05" fill="#3a414a"/><g><use xlink:href="#d" transform="matrix(1,0,0,1,3458.320987654321,-325.4333645248053) translate(0 14.222222222222223)"/><use xlink:href="#T" transform="matrix(1,0,0,1,3458.320987654321,-325.4333645248053) translate(33.48148148148148 14.222222222222223)"/></g><defs><path d="M30-248c87 1 191-15 191 75 0 78-77 80-158 76V0H30v-248zm33 125c57 0 124 11 124-50 0-59-68-47-124-48v98" id="U"/><path d="M212-179c-10-28-35-45-73-45-59 0-87 40-87 99 0 60 29 101 89 101 43 0 62-24 78-52l27 14C228-24 195 4 139 4 59 4 22-46 18-125c-6-104 99-153 187-111 19 9 31 26 39 46" id="V"/><g id="a"><use transform="matrix(0.06172839506172839,0,0,0.06172839506172839,0,0)" xlink:href="#U"/><use transform="matrix(0.06172839506172839,0,0,0.06172839506172839,14.814814814814813,0)" xlink:href="#V"/></g><path fill="#333" d="M136-208V0H84v-208H4v-40h212v40h-80" id="W"/><path fill="#333" d="M85 4C-2 5 27-109 22-190h50c7 57-23 150 33 157 60-5 35-97 40-157h50l1 190h-47c-2-12 1-28-3-38-12 25-28 42-61 42" id="X"/><path fill="#333" d="M135-194c87-1 58 113 63 194h-50c-7-57 23-157-34-157-59 0-34 97-39 157H25l-1-190h47c2 12-1 28 3 38 12-26 28-41 61-42" id="Y"/><path fill="#333" d="M185-48c-13 30-37 53-82 52C43 2 14-33 14-96s30-98 90-98c62 0 83 45 84 108H66c0 31 8 55 39 56 18 0 30-7 34-22zm-45-69c5-46-57-63-70-21-2 6-4 13-4 21h74" id="Z"/><path fill="#333" d="M25 0v-261h50V0H25" id="aa"/><g id="b"><use transform="matrix(0.04938271604938272,0,0,0.04938271604938272,0,0)" xlink:href="#W"/><use transform="matrix(0.04938271604938272,0,0,0.04938271604938272,9.481481481481481,0)" xlink:href="#X"/><use transform="matrix(0.04938271604938272,0,0,0.04938271604938272,20.296296296296298,0)" xlink:href="#Y"/><use transform="matrix(0.04938271604938272,0,0,0.04938271604938272,31.111111111111114,0)" xlink:href="#Y"/><use transform="matrix(0.04938271604938272,0,0,0.04938271604938272,41.92592592592593,0)" xlink:href="#Z"/><use transform="matrix(0.04938271604938272,0,0,0.04938271604938272,51.802469135802475,0)" xlink:href="#aa"/></g><path d="M27 0v-27h64v-190l-56 39v-29l58-41h29v221h61V0H27" id="ab"/><path d="M99-251c64 0 84 50 84 122C183-37 130 33 47-8c-14-7-20-23-25-40l30-5c6 39 69 39 84 7 9-19 16-44 16-74-10 22-31 35-62 35-49 0-73-33-73-83 0-54 28-83 82-83zm-1 141c31-1 51-18 51-49 0-36-14-67-51-67-34 0-49 23-49 58 0 34 15 58 49 58" id="ac"/><path d="M101-251c82-7 93 87 43 132L82-64C71-53 59-42 53-27h129V0H18c2-99 128-94 128-182 0-28-16-43-45-43s-46 15-49 41l-32-3c6-41 34-60 81-64" id="ad"/><path d="M33 0v-38h34V0H33" id="ae"/><path d="M110-160c48 1 74 30 74 79 0 53-28 85-80 85-65 0-83-55-86-122-5-90 50-162 133-122 14 7 22 21 27 39l-31 6c-5-40-67-38-82-6-9 19-15 44-15 74 11-20 30-34 60-33zm-7 138c34 0 49-23 49-58s-16-56-50-56c-29 0-50 16-49 49 1 36 15 65 50 65" id="af"/><path d="M134-131c28 9 52 24 51 62-1 50-34 73-85 73S17-19 16-69c0-36 21-54 49-61-75-25-45-126 34-121 46 3 78 18 79 63 0 33-17 51-44 57zm-34-11c31 1 46-15 46-44 0-28-17-43-47-42-29 0-46 13-45 42 1 28 16 44 46 44zm1 122c35 0 51-18 51-52 0-30-18-46-53-46-33 0-51 17-51 47 0 34 19 51 53 51" id="ag"/><path d="M0 4l72-265h28L28 4H0" id="ah"/><path d="M155-56V0h-30v-56H8v-25l114-167h33v167h35v25h-35zm-30-156c-27 46-58 90-88 131h88v-131" id="ai"/><g id="c"><use transform="matrix(0.06172839506172839,0,0,0.06172839506172839,0,0)" xlink:href="#ab"/><use transform="matrix(0.06172839506172839,0,0,0.06172839506172839,12.345679012345679,0)" xlink:href="#ac"/><use transform="matrix(0.06172839506172839,0,0,0.06172839506172839,24.691358024691358,0)" xlink:href="#ad"/><use transform="matrix(0.06172839506172839,0,0,0.06172839506172839,37.03703703703704,0)" xlink:href="#ae"/><use transform="matrix(0.06172839506172839,0,0,0.06172839506172839,43.20987654320988,0)" xlink:href="#ab"/><use transform="matrix(0.06172839506172839,0,0,0.06172839506172839,55.55555555555556,0)" xlink:href="#af"/><use transform="matrix(0.06172839506172839,0,0,0.06172839506172839,67.90123456790124,0)" xlink:href="#ag"/><use transform="matrix(0.06172839506172839,0,0,0.06172839506172839,80.24691358024693,0)" xlink:href="#ae"/><use transform="matrix(0.06172839506172839,0,0,0.06172839506172839,86.41975308641976,0)" xlink:href="#ab"/><use transform="matrix(0.06172839506172839,0,0,0.06172839506172839,98.76543209876544,0)" xlink:href="#ae"/><use transform="matrix(0.06172839506172839,0,0,0.06172839506172839,104.93827160493828,0)" xlink:href="#ab"/><use transform="matrix(0.06172839506172839,0,0,0.06172839506172839,117.28395061728396,0)" xlink:href="#ah"/><use transform="matrix(0.06172839506172839,0,0,0.06172839506172839,123.4567901234568,0)" xlink:href="#ad"/><use transform="matrix(0.06172839506172839,0,0,0.06172839506172839,135.80246913580248,0)" xlink:href="#ai"/><path fill="#8080ff" d="M-1.1 1.54h150.36v1.63H-1.1z"/></g><path fill="#333" d="M24 0v-248h195v40H76v63h132v40H76v65h150V0H24" id="aj"/><path fill="#333" d="M115-3C79 11 28 4 28-45v-112H4v-33h27l15-45h31v45h36v33H77v99c-1 23 16 31 38 25v30" id="ak"/><path fill="#333" d="M114-157C55-157 80-60 75 0H25v-261h50l-1 109c12-26 28-41 61-42 86-1 58 113 63 194h-50c-7-57 23-157-34-157" id="al"/><g id="d"><use transform="matrix(0.04938271604938272,0,0,0.04938271604938272,0,0)" xlink:href="#aj"/><use transform="matrix(0.04938271604938272,0,0,0.04938271604938272,11.851851851851853,0)" xlink:href="#ak"/><use transform="matrix(0.04938271604938272,0,0,0.04938271604938272,17.728395061728396,0)" xlink:href="#al"/></g><path fill="#333" d="M182-182c0 78-84 86-111 141h115V0H12c-6-101 99-100 120-180 1-22-12-31-33-32-23 0-32 14-35 34l-49-3c5-45 32-70 84-70 51 0 83 22 83 69" id="am"/><use transform="matrix(0.04938271604938272,0,0,0.04938271604938272,0,0)" xlink:href="#am" id="e"/><path fill="#333" d="M23 0v-37h61v-169l-59 37v-38l62-41h46v211h57V0H23" id="an"/><path fill="#333" d="M99-251c69 0 84 53 88 123 5 99-61 162-144 118-15-8-21-25-26-45l46-6c4 31 50 33 63 7 7-15 12-36 12-60-9 18-29 28-54 28-48 0-72-32-72-82 0-55 31-83 87-83zm-1 128c24 0 37-16 37-39 0-27-10-51-37-51-25 0-35 19-35 45 0 25 10 45 35 45" id="ao"/><path fill="#333" d="M24 0v-54h51V0H24" id="ap"/><path fill="#333" d="M115-159c48 0 72 30 72 78 0 54-30 85-83 85-64 0-91-50-91-122 0-98 58-163 141-120 15 8 21 24 27 44l-47 6c-5-31-48-31-61-4-7 14-11 33-11 60 9-17 28-27 53-27zM102-35c24 0 36-20 36-45s-11-43-37-43c-23 0-36 14-36 38 0 27 11 50 37 50" id="aq"/><path fill="#333" d="M138-131c27 9 52 24 51 61 0 53-36 74-89 74S11-19 11-69c0-35 22-54 51-61-78-25-46-121 38-121 51 0 83 19 83 66 0 30-18 49-45 54zm-38-16c24 0 32-13 32-36 1-23-11-34-32-34-22 0-33 12-32 34 0 22 9 36 32 36zm1 116c27 0 37-17 37-43 0-25-13-39-39-39-24 0-37 15-37 40 0 27 11 42 39 42" id="ar"/><path fill="#333" d="M4 7l51-268h42L46 7H4" id="as"/><path fill="#333" d="M165-50V0h-47v-50H5v-38l105-160h55v161h33v37h-33zm-47-37l2-116L46-87h72" id="at"/><g id="f"><use transform="matrix(0.06172839506172839,0,0,0.06172839506172839,0,0)" xlink:href="#an"/><use transform="matrix(0.06172839506172839,0,0,0.06172839506172839,12.345679012345679,0)" xlink:href="#ao"/><use transform="matrix(0.06172839506172839,0,0,0.06172839506172839,24.691358024691358,0)" xlink:href="#am"/><use transform="matrix(0.06172839506172839,0,0,0.06172839506172839,37.03703703703704,0)" xlink:href="#ap"/><use transform="matrix(0.06172839506172839,0,0,0.06172839506172839,43.20987654320988,0)" xlink:href="#an"/><use transform="matrix(0.06172839506172839,0,0,0.06172839506172839,55.55555555555556,0)" xlink:href="#aq"/><use transform="matrix(0.06172839506172839,0,0,0.06172839506172839,67.90123456790124,0)" xlink:href="#ar"/><use transform="matrix(0.06172839506172839,0,0,0.06172839506172839,80.24691358024693,0)" xlink:href="#ap"/><use transform="matrix(0.06172839506172839,0,0,0.06172839506172839,86.41975308641976,0)" xlink:href="#am"/><use transform="matrix(0.06172839506172839,0,0,0.06172839506172839,98.76543209876544,0)" xlink:href="#ap"/><use transform="matrix(0.06172839506172839,0,0,0.06172839506172839,104.93827160493828,0)" xlink:href="#an"/><use transform="matrix(0.06172839506172839,0,0,0.06172839506172839,117.28395061728396,0)" xlink:href="#as"/><use transform="matrix(0.06172839506172839,0,0,0.06172839506172839,123.4567901234568,0)" xlink:href="#am"/><use transform="matrix(0.06172839506172839,0,0,0.06172839506172839,135.80246913580248,0)" xlink:href="#at"/><path fill="#8080ff" d="M-1.1 1.2h150.36V3.5H-1.1z"/></g><path fill="#333" d="M128-127c34 4 56 21 59 58 7 91-148 94-172 28-4-9-6-17-7-26l51-5c1 24 16 35 40 36 23 0 39-12 38-36-1-31-31-36-65-34v-40c32 2 59-3 59-33 0-20-13-33-34-33s-33 13-35 32l-50-3c6-44 37-68 86-68 50 0 83 20 83 66 0 35-22 52-53 58" id="au"/><g id="g"><use transform="matrix(0.06172839506172839,0,0,0.06172839506172839,0,0)" xlink:href="#an"/><use transform="matrix(0.06172839506172839,0,0,0.06172839506172839,12.345679012345679,0)" xlink:href="#ao"/><use transform="matrix(0.06172839506172839,0,0,0.06172839506172839,24.691358024691358,0)" xlink:href="#am"/><use transform="matrix(0.06172839506172839,0,0,0.06172839506172839,37.03703703703704,0)" xlink:href="#ap"/><use transform="matrix(0.06172839506172839,0,0,0.06172839506172839,43.20987654320988,0)" xlink:href="#an"/><use transform="matrix(0.06172839506172839,0,0,0.06172839506172839,55.55555555555556,0)" xlink:href="#aq"/><use transform="matrix(0.06172839506172839,0,0,0.06172839506172839,67.90123456790124,0)" xlink:href="#ar"/><use transform="matrix(0.06172839506172839,0,0,0.06172839506172839,80.24691358024693,0)" xlink:href="#ap"/><use transform="matrix(0.06172839506172839,0,0,0.06172839506172839,86.41975308641976,0)" xlink:href="#au"/><use transform="matrix(0.06172839506172839,0,0,0.06172839506172839,98.76543209876544,0)" xlink:href="#ap"/><use transform="matrix(0.06172839506172839,0,0,0.06172839506172839,104.93827160493828,0)" xlink:href="#an"/><use transform="matrix(0.06172839506172839,0,0,0.06172839506172839,117.28395061728396,0)" xlink:href="#as"/><use transform="matrix(0.06172839506172839,0,0,0.06172839506172839,123.4567901234568,0)" xlink:href="#am"/><use transform="matrix(0.06172839506172839,0,0,0.06172839506172839,135.80246913580248,0)" xlink:href="#at"/></g><path d="M233-177c-1 41-23 64-60 70L243 0h-38l-65-103H63V0H30v-248c88 3 205-21 203 71zM63-129c60-2 137 13 137-47 0-61-80-42-137-45v92" id="av"/><g id="h"><use transform="matrix(0.06172839506172839,0,0,0.06172839506172839,0,0)" xlink:href="#av"/><use transform="matrix(0.06172839506172839,0,0,0.06172839506172839,15.987654320987653,0)" xlink:href="#ab"/></g><path d="M194 0L95-120 63-95V0H30v-248h33v124l119-124h40L117-140 236 0h-42" id="aw"/><path d="M197 0v-115H63V0H30v-248h33v105h134v-105h34V0h-34" id="ax"/><path d="M33 0v-248h34V0H33" id="ay"/><g id="i"><use transform="matrix(0.06172839506172839,0,0,0.06172839506172839,0,0)" xlink:href="#aw"/><use transform="matrix(0.06172839506172839,0,0,0.06172839506172839,14.814814814814813,0)" xlink:href="#ax"/><use transform="matrix(0.06172839506172839,0,0,0.06172839506172839,30.80246913580247,0)" xlink:href="#ay"/></g><g id="j"><use transform="matrix(0.06172839506172839,0,0,0.06172839506172839,0,0)" xlink:href="#av"/><use transform="matrix(0.06172839506172839,0,0,0.06172839506172839,15.987654320987653,0)" xlink:href="#ad"/></g><path d="M153-248C145-148 188 4 80 4 36 3 13-21 6-62l32-5c4 25 16 42 43 43 27 0 39-20 39-49v-147H72v-28h81" id="az"/><g id="k"><use transform="matrix(0.06172839506172839,0,0,0.06172839506172839,0,0)" xlink:href="#aw"/><use transform="matrix(0.06172839506172839,0,0,0.06172839506172839,14.814814814814813,0)" xlink:href="#az"/></g><path d="M126-127c33 6 58 20 58 59 0 88-139 92-164 29-3-8-5-16-6-25l32-3c6 27 21 44 54 44 32 0 52-15 52-46 0-38-36-46-79-43v-28c39 1 72-4 72-42 0-27-17-43-46-43-28 0-47 15-49 41l-32-3c6-42 35-63 81-64 48-1 79 21 79 65 0 36-21 52-52 59" id="aA"/><g id="l"><use transform="matrix(0.06172839506172839,0,0,0.06172839506172839,0,0)" xlink:href="#av"/><use transform="matrix(0.06172839506172839,0,0,0.06172839506172839,15.987654320987653,0)" xlink:href="#aA"/></g><g id="m"><use transform="matrix(0.06172839506172839,0,0,0.06172839506172839,0,0)" xlink:href="#V"/><use transform="matrix(0.06172839506172839,0,0,0.06172839506172839,15.987654320987653,0)" xlink:href="#av"/></g><g id="n"><use transform="matrix(0.06172839506172839,0,0,0.06172839506172839,0,0)" xlink:href="#ay"/><use transform="matrix(0.06172839506172839,0,0,0.06172839506172839,6.172839506172839,0)" xlink:href="#U"/><use transform="matrix(0.06172839506172839,0,0,0.06172839506172839,20.98765432098765,0)" xlink:href="#ay"/><use transform="matrix(0.06172839506172839,0,0,0.06172839506172839,27.16049382716049,0)" xlink:href="#U"/></g><path d="M127-220V0H93v-220H8v-28h204v28h-85" id="aB"/><path d="M84 4C-5 8 30-112 23-190h32v120c0 31 7 50 39 49 72-2 45-101 50-169h31l1 190h-30c-1-10 1-25-2-33-11 22-28 36-60 37" id="aC"/><path d="M117-194c89-4 53 116 60 194h-32v-121c0-31-8-49-39-48C34-167 62-67 57 0H25l-1-190h30c1 10-1 24 2 32 11-22 29-35 61-36" id="aD"/><path d="M100-194c63 0 86 42 84 106H49c0 40 14 67 53 68 26 1 43-12 49-29l28 8c-11 28-37 45-77 45C44 4 14-33 15-96c1-61 26-98 85-98zm52 81c6-60-76-77-97-28-3 7-6 17-6 28h103" id="aE"/><path d="M24 0v-261h32V0H24" id="aF"/><g id="o"><use transform="matrix(0.06172839506172839,0,0,0.06172839506172839,0,0)" xlink:href="#aB"/><use transform="matrix(0.06172839506172839,0,0,0.06172839506172839,12.716049382716047,0)" xlink:href="#aC"/><use transform="matrix(0.06172839506172839,0,0,0.06172839506172839,25.061728395061728,0)" xlink:href="#aD"/><use transform="matrix(0.06172839506172839,0,0,0.06172839506172839,37.407407407407405,0)" xlink:href="#aD"/><use transform="matrix(0.06172839506172839,0,0,0.06172839506172839,49.75308641975308,0)" xlink:href="#aE"/><use transform="matrix(0.06172839506172839,0,0,0.06172839506172839,62.09876543209876,0)" xlink:href="#aF"/></g><g id="p"><use transform="matrix(0.06172839506172839,0,0,0.06172839506172839,0,0)" xlink:href="#aA"/><use transform="matrix(0.06172839506172839,0,0,0.06172839506172839,12.345679012345679,0)" xlink:href="#aA"/><use transform="matrix(0.06172839506172839,0,0,0.06172839506172839,24.691358024691358,0)" xlink:href="#ae"/><use transform="matrix(0.06172839506172839,0,0,0.06172839506172839,30.864197530864196,0)" xlink:href="#aA"/><use transform="matrix(0.06172839506172839,0,0,0.06172839506172839,43.20987654320987,0)" xlink:href="#aA"/><use transform="matrix(0.06172839506172839,0,0,0.06172839506172839,55.55555555555555,0)" xlink:href="#ae"/><use transform="matrix(0.06172839506172839,0,0,0.06172839506172839,61.72839506172839,0)" xlink:href="#aA"/><use transform="matrix(0.06172839506172839,0,0,0.06172839506172839,74.07407407407408,0)" xlink:href="#aA"/><use transform="matrix(0.06172839506172839,0,0,0.06172839506172839,86.41975308641976,0)" xlink:href="#ae"/><use transform="matrix(0.06172839506172839,0,0,0.06172839506172839,92.5925925925926,0)" xlink:href="#ab"/><use transform="matrix(0.06172839506172839,0,0,0.06172839506172839,104.93827160493828,0)" xlink:href="#ah"/><use transform="matrix(0.06172839506172839,0,0,0.06172839506172839,111.11111111111111,0)" xlink:href="#ad"/><use transform="matrix(0.06172839506172839,0,0,0.06172839506172839,123.4567901234568,0)" xlink:href="#ac"/></g><path d="M115-194c55 1 70 41 70 98S169 2 115 4C84 4 66-9 55-30l1 105H24l-1-265h31l2 30c10-21 28-34 59-34zm-8 174c40 0 45-34 45-75s-6-73-45-74c-42 0-51 32-51 76 0 43 10 73 51 73" id="aG"/><g id="q"><use transform="matrix(0.06172839506172839,0,0,0.06172839506172839,0,0)" xlink:href="#ay"/><use transform="matrix(0.06172839506172839,0,0,0.06172839506172839,6.172839506172839,0)" xlink:href="#aG"/></g><path d="M115-194c53 0 69 39 70 98 0 66-23 100-70 100C84 3 66-7 56-30L54 0H23l1-261h32v101c10-23 28-34 59-34zm-8 174c40 0 45-34 45-75 0-40-5-75-45-74-42 0-51 32-51 76 0 43 10 73 51 73" id="aH"/><path d="M24-231v-30h32v30H24zM24 0v-190h32V0H24" id="aI"/><path d="M96-169c-40 0-48 33-48 73s9 75 48 75c24 0 41-14 43-38l32 2c-6 37-31 61-74 61-59 0-76-41-82-99-10-93 101-131 147-64 4 7 5 14 7 22l-32 3c-4-21-16-35-41-35" id="aJ"/><g id="r"><use transform="matrix(0.06172839506172839,0,0,0.06172839506172839,0,0)" xlink:href="#U"/><use transform="matrix(0.06172839506172839,0,0,0.06172839506172839,14.814814814814813,0)" xlink:href="#aC"/><use transform="matrix(0.06172839506172839,0,0,0.06172839506172839,27.160493827160494,0)" xlink:href="#aH"/><use transform="matrix(0.06172839506172839,0,0,0.06172839506172839,39.50617283950617,0)" xlink:href="#aF"/><use transform="matrix(0.06172839506172839,0,0,0.06172839506172839,44.382716049382715,0)" xlink:href="#aI"/><use transform="matrix(0.06172839506172839,0,0,0.06172839506172839,49.25925925925926,0)" xlink:href="#aJ"/></g><path d="M101-251c68 0 85 55 85 127S166 4 100 4C33 4 14-52 14-124c0-73 17-127 87-127zm-1 229c47 0 54-49 54-102s-4-102-53-102c-51 0-55 48-55 102 0 53 5 102 54 102" id="aK"/><g id="s"><use transform="matrix(0.06172839506172839,0,0,0.06172839506172839,0,0)" xlink:href="#ad"/><use transform="matrix(0.06172839506172839,0,0,0.06172839506172839,12.345679012345679,0)" xlink:href="#aK"/><use transform="matrix(0.06172839506172839,0,0,0.06172839506172839,24.691358024691358,0)" xlink:href="#ae"/><use transform="matrix(0.06172839506172839,0,0,0.06172839506172839,30.864197530864196,0)" xlink:href="#af"/><use transform="matrix(0.06172839506172839,0,0,0.06172839506172839,43.20987654320987,0)" xlink:href="#ae"/><use transform="matrix(0.06172839506172839,0,0,0.06172839506172839,49.382716049382715,0)" xlink:href="#af"/><use transform="matrix(0.06172839506172839,0,0,0.06172839506172839,61.72839506172839,0)" xlink:href="#ae"/><use transform="matrix(0.06172839506172839,0,0,0.06172839506172839,67.90123456790123,0)" xlink:href="#ad"/><use transform="matrix(0.06172839506172839,0,0,0.06172839506172839,80.24691358024691,0)" xlink:href="#ah"/><use transform="matrix(0.06172839506172839,0,0,0.06172839506172839,86.41975308641975,0)" xlink:href="#ad"/><use transform="matrix(0.06172839506172839,0,0,0.06172839506172839,98.76543209876543,0)" xlink:href="#ac"/></g><g id="t"><use transform="matrix(0.06172839506172839,0,0,0.06172839506172839,0,0)" xlink:href="#aB"/><use transform="matrix(0.06172839506172839,0,0,0.06172839506172839,12.716049382716047,0)" xlink:href="#aC"/><use transform="matrix(0.06172839506172839,0,0,0.06172839506172839,25.061728395061728,0)" xlink:href="#aD"/><use transform="matrix(0.06172839506172839,0,0,0.06172839506172839,37.407407407407405,0)" xlink:href="#aD"/><use transform="matrix(0.06172839506172839,0,0,0.06172839506172839,49.75308641975308,0)" xlink:href="#aE"/><use transform="matrix(0.06172839506172839,0,0,0.06172839506172839,62.09876543209876,0)" xlink:href="#aF"/></g><g id="u"><use transform="matrix(0.06172839506172839,0,0,0.06172839506172839,0,0)" xlink:href="#ad"/><use transform="matrix(0.06172839506172839,0,0,0.06172839506172839,12.345679012345679,0)" xlink:href="#ad"/><use transform="matrix(0.06172839506172839,0,0,0.06172839506172839,24.691358024691358,0)" xlink:href="#ae"/><use transform="matrix(0.06172839506172839,0,0,0.06172839506172839,30.864197530864196,0)" xlink:href="#ad"/><use transform="matrix(0.06172839506172839,0,0,0.06172839506172839,43.20987654320987,0)" xlink:href="#ad"/><use transform="matrix(0.06172839506172839,0,0,0.06172839506172839,55.55555555555555,0)" xlink:href="#ae"/><use transform="matrix(0.06172839506172839,0,0,0.06172839506172839,61.72839506172839,0)" xlink:href="#ad"/><use transform="matrix(0.06172839506172839,0,0,0.06172839506172839,74.07407407407408,0)" xlink:href="#ad"/><use transform="matrix(0.06172839506172839,0,0,0.06172839506172839,86.41975308641976,0)" xlink:href="#ae"/><use transform="matrix(0.06172839506172839,0,0,0.06172839506172839,92.5925925925926,0)" xlink:href="#ab"/><use transform="matrix(0.06172839506172839,0,0,0.06172839506172839,104.93827160493828,0)" xlink:href="#ah"/><use transform="matrix(0.06172839506172839,0,0,0.06172839506172839,111.11111111111111,0)" xlink:href="#ad"/><use transform="matrix(0.06172839506172839,0,0,0.06172839506172839,123.4567901234568,0)" xlink:href="#ac"/></g><g id="v"><use transform="matrix(0.06172839506172839,0,0,0.06172839506172839,0,0)" xlink:href="#ad"/><use transform="matrix(0.06172839506172839,0,0,0.06172839506172839,12.345679012345679,0)" xlink:href="#ad"/><use transform="matrix(0.06172839506172839,0,0,0.06172839506172839,24.691358024691358,0)" xlink:href="#ae"/><use transform="matrix(0.06172839506172839,0,0,0.06172839506172839,30.864197530864196,0)" xlink:href="#ad"/><use transform="matrix(0.06172839506172839,0,0,0.06172839506172839,43.20987654320987,0)" xlink:href="#ad"/><use transform="matrix(0.06172839506172839,0,0,0.06172839506172839,55.55555555555555,0)" xlink:href="#ae"/><use transform="matrix(0.06172839506172839,0,0,0.06172839506172839,61.72839506172839,0)" xlink:href="#ad"/><use transform="matrix(0.06172839506172839,0,0,0.06172839506172839,74.07407407407408,0)" xlink:href="#ad"/><use transform="matrix(0.06172839506172839,0,0,0.06172839506172839,86.41975308641976,0)" xlink:href="#ae"/><use transform="matrix(0.06172839506172839,0,0,0.06172839506172839,92.5925925925926,0)" xlink:href="#ad"/><use transform="matrix(0.06172839506172839,0,0,0.06172839506172839,104.93827160493828,0)" xlink:href="#ah"/><use transform="matrix(0.06172839506172839,0,0,0.06172839506172839,111.11111111111111,0)" xlink:href="#ad"/><use transform="matrix(0.06172839506172839,0,0,0.06172839506172839,123.4567901234568,0)" xlink:href="#ac"/></g><path d="M59-47c-2 24 18 29 38 22v24C64 9 27 4 27-40v-127H5v-23h24l9-43h21v43h35v23H59v120" id="aL"/><path d="M114-163C36-179 61-72 57 0H25l-1-190h30c1 12-1 29 2 39 6-27 23-49 58-41v29" id="aM"/><g id="w"><use transform="matrix(0.06172839506172839,0,0,0.06172839506172839,0,0)" xlink:href="#ay"/><use transform="matrix(0.06172839506172839,0,0,0.06172839506172839,6.172839506172839,0)" xlink:href="#aD"/><use transform="matrix(0.06172839506172839,0,0,0.06172839506172839,18.51851851851852,0)" xlink:href="#aL"/><use transform="matrix(0.06172839506172839,0,0,0.06172839506172839,24.691358024691358,0)" xlink:href="#aE"/><use transform="matrix(0.06172839506172839,0,0,0.06172839506172839,37.03703703703704,0)" xlink:href="#aM"/><use transform="matrix(0.06172839506172839,0,0,0.06172839506172839,44.382716049382715,0)" xlink:href="#aD"/><use transform="matrix(0.06172839506172839,0,0,0.06172839506172839,56.72839506172839,0)" xlink:href="#aE"/><use transform="matrix(0.06172839506172839,0,0,0.06172839506172839,69.07407407407408,0)" xlink:href="#aL"/></g><g id="x"><use transform="matrix(0.06172839506172839,0,0,0.06172839506172839,0,0)" xlink:href="#aA"/><use transform="matrix(0.06172839506172839,0,0,0.06172839506172839,12.345679012345679,0)" xlink:href="#aA"/><use transform="matrix(0.06172839506172839,0,0,0.06172839506172839,24.691358024691358,0)" xlink:href="#ae"/><use transform="matrix(0.06172839506172839,0,0,0.06172839506172839,30.864197530864196,0)" xlink:href="#aA"/><use transform="matrix(0.06172839506172839,0,0,0.06172839506172839,43.20987654320987,0)" xlink:href="#aA"/><use transform="matrix(0.06172839506172839,0,0,0.06172839506172839,55.55555555555555,0)" xlink:href="#ae"/><use transform="matrix(0.06172839506172839,0,0,0.06172839506172839,61.72839506172839,0)" xlink:href="#aA"/><use transform="matrix(0.06172839506172839,0,0,0.06172839506172839,74.07407407407408,0)" xlink:href="#aA"/><use transform="matrix(0.06172839506172839,0,0,0.06172839506172839,86.41975308641976,0)" xlink:href="#ae"/><use transform="matrix(0.06172839506172839,0,0,0.06172839506172839,92.5925925925926,0)" xlink:href="#ad"/><use transform="matrix(0.06172839506172839,0,0,0.06172839506172839,104.93827160493828,0)" xlink:href="#ah"/><use transform="matrix(0.06172839506172839,0,0,0.06172839506172839,111.11111111111111,0)" xlink:href="#ad"/><use transform="matrix(0.06172839506172839,0,0,0.06172839506172839,123.4567901234568,0)" xlink:href="#ac"/></g><g id="y"><use transform="matrix(0.06172839506172839,0,0,0.06172839506172839,0,0)" xlink:href="#ad"/><use transform="matrix(0.06172839506172839,0,0,0.06172839506172839,12.345679012345679,0)" xlink:href="#aK"/><use transform="matrix(0.06172839506172839,0,0,0.06172839506172839,24.691358024691358,0)" xlink:href="#ae"/><use transform="matrix(0.06172839506172839,0,0,0.06172839506172839,30.864197530864196,0)" xlink:href="#af"/><use transform="matrix(0.06172839506172839,0,0,0.06172839506172839,43.20987654320987,0)" xlink:href="#ae"/><use transform="matrix(0.06172839506172839,0,0,0.06172839506172839,49.382716049382715,0)" xlink:href="#af"/><use transform="matrix(0.06172839506172839,0,0,0.06172839506172839,61.72839506172839,0)" xlink:href="#ae"/><use transform="matrix(0.06172839506172839,0,0,0.06172839506172839,67.90123456790123,0)" xlink:href="#ab"/><use transform="matrix(0.06172839506172839,0,0,0.06172839506172839,80.24691358024691,0)" xlink:href="#ah"/><use transform="matrix(0.06172839506172839,0,0,0.06172839506172839,86.41975308641975,0)" xlink:href="#ad"/><use transform="matrix(0.06172839506172839,0,0,0.06172839506172839,98.76543209876543,0)" xlink:href="#ac"/></g><g id="z"><use transform="matrix(0.06172839506172839,0,0,0.06172839506172839,0,0)" xlink:href="#ad"/><use transform="matrix(0.06172839506172839,0,0,0.06172839506172839,12.345679012345679,0)" xlink:href="#aK"/><use transform="matrix(0.06172839506172839,0,0,0.06172839506172839,24.691358024691358,0)" xlink:href="#ae"/><use transform="matrix(0.06172839506172839,0,0,0.06172839506172839,30.864197530864196,0)" xlink:href="#ag"/><use transform="matrix(0.06172839506172839,0,0,0.06172839506172839,43.20987654320987,0)" xlink:href="#ae"/><use transform="matrix(0.06172839506172839,0,0,0.06172839506172839,49.382716049382715,0)" xlink:href="#ag"/><use transform="matrix(0.06172839506172839,0,0,0.06172839506172839,61.72839506172839,0)" xlink:href="#ae"/><use transform="matrix(0.06172839506172839,0,0,0.06172839506172839,67.90123456790123,0)" xlink:href="#ab"/><use transform="matrix(0.06172839506172839,0,0,0.06172839506172839,80.24691358024691,0)" xlink:href="#ah"/><use transform="matrix(0.06172839506172839,0,0,0.06172839506172839,86.41975308641975,0)" xlink:href="#ad"/><use transform="matrix(0.06172839506172839,0,0,0.06172839506172839,98.76543209876543,0)" xlink:href="#ac"/></g><g id="B"><use transform="matrix(0.06172839506172839,0,0,0.06172839506172839,0,0)" xlink:href="#ad"/><use transform="matrix(0.06172839506172839,0,0,0.06172839506172839,12.345679012345679,0)" xlink:href="#aK"/><use transform="matrix(0.06172839506172839,0,0,0.06172839506172839,24.691358024691358,0)" xlink:href="#ae"/><use transform="matrix(0.06172839506172839,0,0,0.06172839506172839,30.864197530864196,0)" xlink:href="#ag"/><use transform="matrix(0.06172839506172839,0,0,0.06172839506172839,43.20987654320987,0)" xlink:href="#ae"/><use transform="matrix(0.06172839506172839,0,0,0.06172839506172839,49.382716049382715,0)" xlink:href="#ag"/><use transform="matrix(0.06172839506172839,0,0,0.06172839506172839,61.72839506172839,0)" xlink:href="#ae"/><use transform="matrix(0.06172839506172839,0,0,0.06172839506172839,67.90123456790123,0)" xlink:href="#ad"/><use transform="matrix(0.06172839506172839,0,0,0.06172839506172839,80.24691358024691,0)" xlink:href="#ah"/><use transform="matrix(0.06172839506172839,0,0,0.06172839506172839,86.41975308641975,0)" xlink:href="#ad"/><use transform="matrix(0.06172839506172839,0,0,0.06172839506172839,98.76543209876543,0)" xlink:href="#ac"/></g><path d="M185-189c-5-48-123-54-124 2 14 75 158 14 163 119 3 78-121 87-175 55-17-10-28-26-33-46l33-7c5 56 141 63 141-1 0-78-155-14-162-118-5-82 145-84 179-34 5 7 8 16 11 25" id="aN"/><path d="M206 0h-36l-40-164L89 0H53L-1-190h32L70-26l43-164h34l41 164 42-164h31" id="aO"/><path d="M106-169C34-169 62-67 57 0H25v-261h32l-1 103c12-21 28-36 61-36 89 0 53 116 60 194h-32v-121c2-32-8-49-39-48" id="aP"/><g id="C"><use transform="matrix(0.06172839506172839,0,0,0.06172839506172839,0,0)" xlink:href="#aN"/><use transform="matrix(0.06172839506172839,0,0,0.06172839506172839,14.814814814814813,0)" xlink:href="#aO"/><use transform="matrix(0.06172839506172839,0,0,0.06172839506172839,30.80246913580247,0)" xlink:href="#aI"/><use transform="matrix(0.06172839506172839,0,0,0.06172839506172839,35.67901234567901,0)" xlink:href="#aL"/><use transform="matrix(0.06172839506172839,0,0,0.06172839506172839,41.851851851851855,0)" xlink:href="#aJ"/><use transform="matrix(0.06172839506172839,0,0,0.06172839506172839,52.96296296296296,0)" xlink:href="#aP"/></g><g id="D"><use transform="matrix(0.06172839506172839,0,0,0.06172839506172839,0,0)" xlink:href="#U"/><use transform="matrix(0.06172839506172839,0,0,0.06172839506172839,14.814814814814813,0)" xlink:href="#V"/></g><path d="M100-194c62-1 85 37 85 99 1 63-27 99-86 99S16-35 15-95c0-66 28-99 85-99zM99-20c44 1 53-31 53-75 0-43-8-75-51-75s-53 32-53 75 10 74 51 75" id="aQ"/><g id="E"><use transform="matrix(0.06172839506172839,0,0,0.06172839506172839,0,0)" xlink:href="#av"/><use transform="matrix(0.06172839506172839,0,0,0.06172839506172839,15.987654320987653,0)" xlink:href="#aQ"/><use transform="matrix(0.06172839506172839,0,0,0.06172839506172839,28.333333333333332,0)" xlink:href="#aC"/><use transform="matrix(0.06172839506172839,0,0,0.06172839506172839,40.67901234567901,0)" xlink:href="#aL"/><use transform="matrix(0.06172839506172839,0,0,0.06172839506172839,46.851851851851855,0)" xlink:href="#aE"/><use transform="matrix(0.06172839506172839,0,0,0.06172839506172839,59.19753086419753,0)" xlink:href="#aM"/></g><path d="M177-190C167-65 218 103 67 71c-23-6-38-20-44-43l32-5c15 47 100 32 89-28v-30C133-14 115 1 83 1 29 1 15-40 15-95c0-56 16-97 71-98 29-1 48 16 59 35 1-10 0-23 2-32h30zM94-22c36 0 50-32 50-73 0-42-14-75-50-75-39 0-46 34-46 75s6 73 46 73" id="aR"/><g id="F"><use transform="matrix(0.06172839506172839,0,0,0.06172839506172839,0,0)" xlink:href="#av"/><use transform="matrix(0.06172839506172839,0,0,0.06172839506172839,15.987654320987653,0)" xlink:href="#aQ"/><use transform="matrix(0.06172839506172839,0,0,0.06172839506172839,28.333333333333332,0)" xlink:href="#aC"/><use transform="matrix(0.06172839506172839,0,0,0.06172839506172839,40.67901234567901,0)" xlink:href="#aL"/><use transform="matrix(0.06172839506172839,0,0,0.06172839506172839,46.851851851851855,0)" xlink:href="#aI"/><use transform="matrix(0.06172839506172839,0,0,0.06172839506172839,51.7283950617284,0)" xlink:href="#aD"/><use transform="matrix(0.06172839506172839,0,0,0.06172839506172839,64.07407407407408,0)" xlink:href="#aR"/></g><g id="G"><use transform="matrix(0.06172839506172839,0,0,0.06172839506172839,0,0)" xlink:href="#av"/><use transform="matrix(0.06172839506172839,0,0,0.06172839506172839,15.987654320987653,0)" xlink:href="#ay"/><use transform="matrix(0.06172839506172839,0,0,0.06172839506172839,22.160493827160494,0)" xlink:href="#U"/></g><path d="M232-93c-1 65-40 97-104 97C67 4 28-28 28-90v-158h33c8 89-33 224 67 224 102 0 64-133 71-224h33v155" id="aS"/><path d="M108 0H70L1-190h34L89-25l56-165h34" id="aT"/><path d="M135-143c-3-34-86-38-87 0 15 53 115 12 119 90S17 21 10-45l28-5c4 36 97 45 98 0-10-56-113-15-118-90-4-57 82-63 122-42 12 7 21 19 24 35" id="aU"/><path d="M141-36C126-15 110 5 73 4 37 3 15-17 15-53c-1-64 63-63 125-63 3-35-9-54-41-54-24 1-41 7-42 31l-33-3c5-37 33-52 76-52 45 0 72 20 72 64v82c-1 20 7 32 28 27v20c-31 9-61-2-59-35zM48-53c0 20 12 33 32 33 41-3 63-29 60-74-43 2-92-5-92 41" id="aV"/><g id="H"><use transform="matrix(0.06172839506172839,0,0,0.06172839506172839,0,0)" xlink:href="#aS"/><use transform="matrix(0.06172839506172839,0,0,0.06172839506172839,15.987654320987653,0)" xlink:href="#aD"/><use transform="matrix(0.06172839506172839,0,0,0.06172839506172839,28.333333333333332,0)" xlink:href="#aI"/><use transform="matrix(0.06172839506172839,0,0,0.06172839506172839,33.20987654320987,0)" xlink:href="#aT"/><use transform="matrix(0.06172839506172839,0,0,0.06172839506172839,44.32098765432099,0)" xlink:href="#aE"/><use transform="matrix(0.06172839506172839,0,0,0.06172839506172839,56.666666666666664,0)" xlink:href="#aM"/><use transform="matrix(0.06172839506172839,0,0,0.06172839506172839,64.01234567901234,0)" xlink:href="#aU"/><use transform="matrix(0.06172839506172839,0,0,0.06172839506172839,75.12345679012346,0)" xlink:href="#aI"/><use transform="matrix(0.06172839506172839,0,0,0.06172839506172839,80,0)" xlink:href="#aL"/><use transform="matrix(0.06172839506172839,0,0,0.06172839506172839,86.17283950617283,0)" xlink:href="#aV"/><use transform="matrix(0.06172839506172839,0,0,0.06172839506172839,98.51851851851852,0)" xlink:href="#aU"/></g><path d="M30 0v-248h187v28H63v79h144v27H63v87h162V0H30" id="aW"/><g id="I"><use transform="matrix(0.06172839506172839,0,0,0.06172839506172839,0,0)" xlink:href="#aW"/><use transform="matrix(0.06172839506172839,0,0,0.06172839506172839,14.814814814814813,0)" xlink:href="#aU"/><use transform="matrix(0.06172839506172839,0,0,0.06172839506172839,25.925925925925924,0)" xlink:href="#aV"/></g><g id="J"><use transform="matrix(0.06172839506172839,0,0,0.06172839506172839,0,0)" xlink:href="#aS"/><use transform="matrix(0.06172839506172839,0,0,0.06172839506172839,15.987654320987653,0)" xlink:href="#aD"/><use transform="matrix(0.06172839506172839,0,0,0.06172839506172839,28.333333333333332,0)" xlink:href="#aR"/><use transform="matrix(0.06172839506172839,0,0,0.06172839506172839,40.67901234567901,0)" xlink:href="#aR"/><use transform="matrix(0.06172839506172839,0,0,0.06172839506172839,53.02469135802469,0)" xlink:href="#aC"/><use transform="matrix(0.06172839506172839,0,0,0.06172839506172839,65.37037037037037,0)" xlink:href="#aF"/></g><path d="M190 0L58-211 59 0H30v-248h39L202-35l-2-213h31V0h-41" id="aX"/><path d="M210-169c-67 3-38 105-44 169h-31v-121c0-29-5-50-35-48C34-165 62-65 56 0H25l-1-190h30c1 10-1 24 2 32 10-44 99-50 107 0 11-21 27-35 58-36 85-2 47 119 55 194h-31v-121c0-29-5-49-35-48" id="aY"/><g id="K"><use transform="matrix(0.06172839506172839,0,0,0.06172839506172839,0,0)" xlink:href="#aX"/><use transform="matrix(0.06172839506172839,0,0,0.06172839506172839,15.987654320987653,0)" xlink:href="#aV"/><use transform="matrix(0.06172839506172839,0,0,0.06172839506172839,28.333333333333332,0)" xlink:href="#aY"/><use transform="matrix(0.06172839506172839,0,0,0.06172839506172839,46.79012345679012,0)" xlink:href="#aV"/></g><path d="M33-154v-36h34v36H33zM33 0v-36h34V0H33" id="aZ"/><use transform="matrix(0.06172839506172839,0,0,0.06172839506172839,0,0)" xlink:href="#aZ" id="L"/><path d="M205 0l-28-72H64L36 0H1l101-248h38L239 0h-34zm-38-99l-47-123c-12 45-31 82-46 123h93" id="ba"/><g id="M"><use transform="matrix(0.06172839506172839,0,0,0.06172839506172839,0,0)" xlink:href="#ba"/><use transform="matrix(0.06172839506172839,0,0,0.06172839506172839,14.814814814814813,0)" xlink:href="#aD"/><use transform="matrix(0.06172839506172839,0,0,0.06172839506172839,27.160493827160494,0)" xlink:href="#aL"/><use transform="matrix(0.06172839506172839,0,0,0.06172839506172839,33.333333333333336,0)" xlink:href="#aQ"/><use transform="matrix(0.06172839506172839,0,0,0.06172839506172839,45.67901234567901,0)" xlink:href="#aD"/></g><path d="M101-234c-31-9-42 10-38 44h38v23H63V0H32v-167H5v-23h27c-7-52 17-82 69-68v24" id="bb"/><path d="M85-194c31 0 48 13 60 33l-1-100h32l1 261h-30c-2-10 0-23-3-31C134-8 116 4 85 4 32 4 16-35 15-94c0-66 23-100 70-100zm9 24c-40 0-46 34-46 75 0 40 6 74 45 74 42 0 51-32 51-76 0-42-9-74-50-73" id="bc"/><g id="N"><use transform="matrix(0.06172839506172839,0,0,0.06172839506172839,0,0)" xlink:href="#aX"/><use transform="matrix(0.06172839506172839,0,0,0.06172839506172839,15.987654320987653,0)" xlink:href="#aC"/><use transform="matrix(0.06172839506172839,0,0,0.06172839506172839,28.333333333333332,0)" xlink:href="#aM"/><use transform="matrix(0.06172839506172839,0,0,0.06172839506172839,35.67901234567901,0)" xlink:href="#bb"/><use transform="matrix(0.06172839506172839,0,0,0.06172839506172839,41.851851851851855,0)" xlink:href="#aE"/><use transform="matrix(0.06172839506172839,0,0,0.06172839506172839,54.19753086419753,0)" xlink:href="#aD"/><use transform="matrix(0.06172839506172839,0,0,0.06172839506172839,66.54320987654322,0)" xlink:href="#bc"/><use transform="matrix(0.06172839506172839,0,0,0.06172839506172839,78.8888888888889,0)" xlink:href="#aI"/></g><g id="O"><use transform="matrix(0.06172839506172839,0,0,0.06172839506172839,0,0)" xlink:href="#aX"/><use transform="matrix(0.06172839506172839,0,0,0.06172839506172839,15.987654320987653,0)" xlink:href="#aI"/><use transform="matrix(0.06172839506172839,0,0,0.06172839506172839,20.864197530864196,0)" xlink:href="#aY"/></g><g id="P"><use transform="matrix(0.06172839506172839,0,0,0.06172839506172839,0,0)" xlink:href="#ad"/><use transform="matrix(0.06172839506172839,0,0,0.06172839506172839,12.345679012345679,0)" xlink:href="#aK"/><use transform="matrix(0.06172839506172839,0,0,0.06172839506172839,24.691358024691358,0)" xlink:href="#ad"/><use transform="matrix(0.06172839506172839,0,0,0.06172839506172839,37.03703703703704,0)" xlink:href="#ab"/><use transform="matrix(0.06172839506172839,0,0,0.06172839506172839,49.382716049382715,0)" xlink:href="#aK"/><use transform="matrix(0.06172839506172839,0,0,0.06172839506172839,61.72839506172839,0)" xlink:href="#ag"/><use transform="matrix(0.06172839506172839,0,0,0.06172839506172839,74.07407407407408,0)" xlink:href="#aK"/><use transform="matrix(0.06172839506172839,0,0,0.06172839506172839,86.41975308641976,0)" xlink:href="#ab"/><use transform="matrix(0.06172839506172839,0,0,0.06172839506172839,98.76543209876544,0)" xlink:href="#ad"/><use transform="matrix(0.06172839506172839,0,0,0.06172839506172839,111.11111111111113,0)" xlink:href="#ai"/><use transform="matrix(0.06172839506172839,0,0,0.06172839506172839,123.45679012345681,0)" xlink:href="#ad"/></g><path d="M143 0L79-87 56-68V0H24v-261h32v163l83-92h37l-77 82L181 0h-38" id="bd"/><g id="Q"><use transform="matrix(0.06172839506172839,0,0,0.06172839506172839,0,0)" xlink:href="#az"/><use transform="matrix(0.06172839506172839,0,0,0.06172839506172839,11.11111111111111,0)" xlink:href="#aV"/><use transform="matrix(0.06172839506172839,0,0,0.06172839506172839,23.45679012345679,0)" xlink:href="#aM"/><use transform="matrix(0.06172839506172839,0,0,0.06172839506172839,30.80246913580247,0)" xlink:href="#bd"/><use transform="matrix(0.06172839506172839,0,0,0.06172839506172839,41.91358024691358,0)" xlink:href="#aQ"/><use transform="matrix(0.06172839506172839,0,0,0.06172839506172839,54.25925925925926,0)" xlink:href="#aY"/></g><path d="M30 0v-248h33v221h125V0H30" id="be"/><path d="M24-231v-30h32v30H24zM-9 49c24 4 33-6 33-30v-209h32V24c2 40-23 58-65 49V49" id="bf"/><g id="R"><use transform="matrix(0.06172839506172839,0,0,0.06172839506172839,0,0)" xlink:href="#be"/><use transform="matrix(0.06172839506172839,0,0,0.06172839506172839,12.345679012345679,0)" xlink:href="#aV"/><use transform="matrix(0.06172839506172839,0,0,0.06172839506172839,24.691358024691358,0)" xlink:href="#aD"/><use transform="matrix(0.06172839506172839,0,0,0.06172839506172839,37.03703703703704,0)" xlink:href="#bf"/><use transform="matrix(0.06172839506172839,0,0,0.06172839506172839,41.91358024691358,0)" xlink:href="#aC"/><use transform="matrix(0.06172839506172839,0,0,0.06172839506172839,54.25925925925926,0)" xlink:href="#aL"/></g><g id="S"><use transform="matrix(0.06172839506172839,0,0,0.06172839506172839,0,0)" xlink:href="#aS"/><use transform="matrix(0.06172839506172839,0,0,0.06172839506172839,15.987654320987653,0)" xlink:href="#aB"/><use transform="matrix(0.06172839506172839,0,0,0.06172839506172839,29.50617283950617,0)" xlink:href="#aN"/></g><use transform="matrix(0.04938271604938272,0,0,0.04938271604938272,0,0)" xlink:href="#an" id="T"/></defs></g></svg>